M48
; DRILL file {KiCad (5.1.5)-3} date 1.7.2020. 12:55:44
; FORMAT={-:-/ absolute / inch / decimal}
; #@! TF.CreationDate,2020-07-01T12:55:44+02:00
; #@! TF.GenerationSoftware,Kicad,Pcbnew,(5.1.5)-3
; #@! TF.FileFunction,Plated,1,2,PTH
FMAT,2
INCH
T1C0.0157
T2C0.0315
T3C0.0354
T4C0.0362
T5C0.0394
T6C0.0472
T7C0.0591
T8C0.0630
T9C0.0917
T10C0.1260
T11C0.1339
%
G90
G05
T1
X3.335Y-4.03
X3.4Y-4.075
X3.4244Y-3.025
X3.425Y-2.825
X3.47Y-3.985
X3.6244Y-3.025
X3.625Y-2.825
X3.63Y-3.53
X3.63Y-3.92
X3.69Y-3.37
X3.69Y-4.6
X3.71Y-4.025
X3.71Y-4.175
X3.8037Y-3.5281
X3.8369Y-3.025
X3.8375Y-2.825
X3.8869Y-2.55
X3.975Y-3.6869
X4.0131Y-4.4
X4.0369Y-3.025
X4.0375Y-2.825
X4.0869Y-4.55
X4.18Y-3.99
X4.23Y-4.03
X4.2869Y-2.55
X4.35Y-2.9275
X4.3725Y-3.04
X4.38Y-3.61
X4.39Y-4.5
X4.425Y-3.0025
X4.47Y-3.61
X4.475Y-3.0625
X4.54Y-2.96
X4.575Y-3.0675
X4.6625Y-2.925
X4.675Y-3.065
X4.6869Y-2.55
X4.96Y-3.615
X5.005Y-3.575
X5.0619Y-2.875
X5.0619Y-3.025
X5.075Y-3.6631
X5.075Y-3.7369
X5.0869Y-2.55
X5.12Y-3.2
X5.13Y-4.4
X5.175Y-3.025
X5.18Y-2.72
X5.22Y-3.8225
X5.22Y-3.89
X5.26Y-3.93
X5.265Y-3.6225
X5.3Y-3.585
X5.32Y-4.29
X5.35Y-3.52
X5.3631Y-2.875
X5.3631Y-3.025
X5.4Y-4.29
X5.4375Y-2.875
X5.4375Y-3.025
X5.46Y-2.51
X5.46Y-2.58
X5.4782Y-3.3668
X5.5Y-5.28
X5.53Y-3.755
X5.55Y-2.32
X5.55Y-3.815
X5.55Y-4.2631
X5.55Y-4.6369
X5.55Y-4.82
X5.56Y-5.12
X5.6051Y-2.2249
X5.6125Y-2.45
X5.62Y-3.63
X5.625Y-3.03
X5.66Y-2.595
X5.7Y-3.59
X5.7025Y-2.5375
X5.725Y-4.2631
X5.725Y-4.85
X5.73Y-2.0425
X5.7375Y-3.83
X5.75Y-4.06
X5.78Y-3.6
X5.81Y-3.7625
X5.82Y-4.0
X5.8325Y-3.7175
X5.875Y-3.955
X5.9Y-4.2581
X5.9Y-4.3319
X5.9Y-4.8512
X5.97Y-3.91
X6.0Y-2.6125
X6.02Y-4.105
X6.0225Y-2.8125
X6.0242Y-2.875
X6.1Y-3.73
X6.1075Y-3.02
X6.18Y-3.74
X6.22Y-2.9225
X6.315Y-3.775
X6.35Y-3.6381
X6.4Y-3.05
X6.4075Y-2.3975
X6.53Y-2.4
X6.53Y-3.1075
X6.58Y-2.48
X6.59Y-2.85
X6.615Y-5.84
X6.6619Y-2.85
X6.69Y-5.65
X6.69Y-6.0
X6.7Y-3.51
X6.7Y-3.835
X6.72Y-2.88
X6.76Y-2.97
X6.9Y-2.8381
X6.9Y-2.9119
X7.035Y-2.155
X7.04Y-2.305
X7.225Y-2.625
X7.24Y-3.45
X7.24Y-5.8
X7.28Y-5.84
X7.3169Y-3.05
X7.34Y-5.65
X7.395Y-2.95
X7.395Y-3.0
X7.4169Y-5.65
X7.43Y-5.84
X7.43Y-6.0
X7.435Y-2.735
X7.445Y-3.14
X7.445Y-3.51
X7.46Y-3.02
X7.485Y-2.9
X7.575Y-3.635
X7.5754Y-3.7646
X7.63Y-2.54
X7.87Y-3.05
X7.9Y-4.8472
X8.0Y-3.05
X8.0488Y-2.625
X8.06Y-2.985
X8.095Y-3.055
X8.1Y-2.9119
X8.1619Y-3.9
X8.1699Y-2.15
X8.275Y-2.625
X8.35Y-3.615
X8.35Y-3.75
X8.575Y-2.24
X8.575Y-3.25
X8.575Y-3.35
X8.58Y-3.45
X8.6Y-4.01
X8.6119Y-2.85
X8.625Y-2.545
X8.635Y-2.295
X8.6719Y-3.025
X8.6724Y-3.25
X8.6802Y-2.7047
X8.7451Y-2.15
X8.8Y-3.295
X8.84Y-3.245
X8.8581Y-5.475
T2
X6.3Y-4.4122
X6.3Y-4.55
T3
X4.275Y-5.15
X4.8656Y-5.15
T4
X8.825Y-4.35
X8.825Y-4.4484
X8.9037Y-4.35
X8.9037Y-4.4484
T5
X5.875Y-1.825
X5.875Y-1.925
X5.875Y-2.025
X5.875Y-2.125
X5.875Y-2.225
X5.875Y-2.325
X5.875Y-2.425
X5.875Y-2.525
X6.775Y-1.825
X6.775Y-1.925
X6.775Y-2.025
X6.775Y-2.125
X6.775Y-2.225
X6.775Y-2.325
X6.775Y-2.425
X6.775Y-2.525
X5.1031Y-4.78
X5.3Y-4.78
X3.25Y-3.525
X3.25Y-3.625
X3.25Y-3.725
X3.25Y-3.825
X3.25Y-3.925
X7.975Y-5.725
X7.975Y-5.9219
X9.125Y-3.15
X9.125Y-3.2591
X9.125Y-3.3681
X9.125Y-3.4772
X9.125Y-3.5862
X9.2368Y-3.2045
X9.2368Y-3.3136
X9.2368Y-3.4226
X9.2368Y-3.5317
X8.15Y-4.25
X8.15Y-4.4469
X4.475Y-4.875
X4.6719Y-4.875
T6
X6.3Y-4.9
X6.3Y-5.0969
X6.1Y-5.6
X6.1Y-5.8953
X8.525Y-5.7
X8.525Y-5.8969
T7
X3.75Y-1.8
X3.95Y-1.8
X4.15Y-1.8
X4.35Y-1.8
X4.55Y-1.8
X4.75Y-1.8
X4.95Y-1.8
X5.15Y-1.8
X5.35Y-1.8
X5.55Y-1.8
X3.7Y-5.9
X3.9Y-5.9
X4.1Y-5.9
X4.3Y-5.9
X4.5Y-5.9
X4.7Y-5.9
X4.9Y-5.9
X5.1Y-5.9
X5.3Y-5.9
X5.5Y-5.9
X7.1Y-1.8
X7.3Y-1.8
X7.5Y-1.8
X7.7Y-1.8
X7.9Y-1.8
X8.1Y-1.8
X8.3Y-1.8
X8.5Y-1.8
X8.7Y-1.8
X8.9Y-1.8
X7.39Y-4.995
X9.12Y-5.1
X7.025Y-5.825
T8
X6.75Y-4.3
X6.75Y-4.8
X8.4Y-4.75
X8.4Y-5.25
T9
X9.0104Y-4.1622
X9.0104Y-4.6362
T10
X9.1368Y-2.876
X9.1368Y-3.8602
T11
X9.252Y-1.7717
X3.3464Y-5.9055
X9.25Y-5.9055
X3.3465Y-1.7717
T0
M30
