G04 #@! TF.GenerationSoftware,KiCad,Pcbnew,(5.1.5)-3*
G04 #@! TF.CreationDate,2020-07-01T12:55:52+02:00*
G04 #@! TF.ProjectId,ControlUnit_v5.0,436f6e74-726f-46c5-956e-69745f76352e,5.0*
G04 #@! TF.SameCoordinates,Original*
G04 #@! TF.FileFunction,Soldermask,Bot*
G04 #@! TF.FilePolarity,Negative*
%FSLAX46Y46*%
G04 Gerber Fmt 4.6, Leading zero omitted, Abs format (unit mm)*
G04 Created by KiCad (PCBNEW (5.1.5)-3) date 2020-07-01 12:55:52*
%MOMM*%
%LPD*%
G04 APERTURE LIST*
%ADD10C,0.100000*%
G04 APERTURE END LIST*
D10*
G36*
X235985787Y-146585162D02*
G01*
X236175068Y-146663565D01*
X236632029Y-146852844D01*
X237213631Y-147241458D01*
X237708242Y-147736069D01*
X238096856Y-148317671D01*
X238243366Y-148671377D01*
X238364538Y-148963913D01*
X238501000Y-149649956D01*
X238501000Y-150349444D01*
X238364538Y-151035487D01*
X238286135Y-151224768D01*
X238096856Y-151681729D01*
X237708242Y-152263331D01*
X237213631Y-152757942D01*
X236632029Y-153146556D01*
X236175068Y-153335835D01*
X235985787Y-153414238D01*
X235299744Y-153550700D01*
X234600256Y-153550700D01*
X233914213Y-153414238D01*
X233724932Y-153335835D01*
X233267971Y-153146556D01*
X232686369Y-152757942D01*
X232191758Y-152263331D01*
X231803144Y-151681729D01*
X231613865Y-151224768D01*
X231535462Y-151035487D01*
X231399000Y-150349444D01*
X231399000Y-149649956D01*
X231535462Y-148963913D01*
X231656634Y-148671377D01*
X231803144Y-148317671D01*
X232191758Y-147736069D01*
X232686369Y-147241458D01*
X233267971Y-146852844D01*
X233724932Y-146663565D01*
X233914213Y-146585162D01*
X234600256Y-146448700D01*
X235299744Y-146448700D01*
X235985787Y-146585162D01*
G37*
G36*
X86035617Y-146585162D02*
G01*
X86224898Y-146663565D01*
X86681859Y-146852844D01*
X87263461Y-147241458D01*
X87758072Y-147736069D01*
X88146686Y-148317671D01*
X88293196Y-148671377D01*
X88414368Y-148963913D01*
X88550830Y-149649956D01*
X88550830Y-150349444D01*
X88414368Y-151035487D01*
X88335965Y-151224768D01*
X88146686Y-151681729D01*
X87758072Y-152263331D01*
X87263461Y-152757942D01*
X86681859Y-153146556D01*
X86224898Y-153335835D01*
X86035617Y-153414238D01*
X85349574Y-153550700D01*
X84650086Y-153550700D01*
X83964043Y-153414238D01*
X83774762Y-153335835D01*
X83317801Y-153146556D01*
X82736199Y-152757942D01*
X82241588Y-152263331D01*
X81852974Y-151681729D01*
X81663695Y-151224768D01*
X81585292Y-151035487D01*
X81448830Y-150349444D01*
X81448830Y-149649956D01*
X81585292Y-148963913D01*
X81706464Y-148671377D01*
X81852974Y-148317671D01*
X82241588Y-147736069D01*
X82736199Y-147241458D01*
X83317801Y-146852844D01*
X83774762Y-146663565D01*
X83964043Y-146585162D01*
X84650086Y-146448700D01*
X85349574Y-146448700D01*
X86035617Y-146585162D01*
G37*
G36*
X124835256Y-148251298D02*
G01*
X124941579Y-148272447D01*
X125242042Y-148396903D01*
X125512451Y-148577585D01*
X125742415Y-148807549D01*
X125923097Y-149077958D01*
X126047553Y-149378421D01*
X126054848Y-149415097D01*
X126102924Y-149656787D01*
X126111000Y-149697391D01*
X126111000Y-150022609D01*
X126047553Y-150341579D01*
X125923097Y-150642042D01*
X125742415Y-150912451D01*
X125512451Y-151142415D01*
X125242042Y-151323097D01*
X124941579Y-151447553D01*
X124835256Y-151468702D01*
X124622611Y-151511000D01*
X124297389Y-151511000D01*
X124084744Y-151468702D01*
X123978421Y-151447553D01*
X123677958Y-151323097D01*
X123407549Y-151142415D01*
X123177585Y-150912451D01*
X122996903Y-150642042D01*
X122872447Y-150341579D01*
X122809000Y-150022609D01*
X122809000Y-149697391D01*
X122817077Y-149656787D01*
X122865152Y-149415097D01*
X122872447Y-149378421D01*
X122996903Y-149077958D01*
X123177585Y-148807549D01*
X123407549Y-148577585D01*
X123677958Y-148396903D01*
X123978421Y-148272447D01*
X124084744Y-148251298D01*
X124297389Y-148209000D01*
X124622611Y-148209000D01*
X124835256Y-148251298D01*
G37*
G36*
X129915256Y-148251298D02*
G01*
X130021579Y-148272447D01*
X130322042Y-148396903D01*
X130592451Y-148577585D01*
X130822415Y-148807549D01*
X131003097Y-149077958D01*
X131127553Y-149378421D01*
X131134848Y-149415097D01*
X131182924Y-149656787D01*
X131191000Y-149697391D01*
X131191000Y-150022609D01*
X131127553Y-150341579D01*
X131003097Y-150642042D01*
X130822415Y-150912451D01*
X130592451Y-151142415D01*
X130322042Y-151323097D01*
X130021579Y-151447553D01*
X129915256Y-151468702D01*
X129702611Y-151511000D01*
X129377389Y-151511000D01*
X129164744Y-151468702D01*
X129058421Y-151447553D01*
X128757958Y-151323097D01*
X128487549Y-151142415D01*
X128257585Y-150912451D01*
X128076903Y-150642042D01*
X127952447Y-150341579D01*
X127889000Y-150022609D01*
X127889000Y-149697391D01*
X127897077Y-149656787D01*
X127945152Y-149415097D01*
X127952447Y-149378421D01*
X128076903Y-149077958D01*
X128257585Y-148807549D01*
X128487549Y-148577585D01*
X128757958Y-148396903D01*
X129058421Y-148272447D01*
X129164744Y-148251298D01*
X129377389Y-148209000D01*
X129702611Y-148209000D01*
X129915256Y-148251298D01*
G37*
G36*
X114675256Y-148251298D02*
G01*
X114781579Y-148272447D01*
X115082042Y-148396903D01*
X115352451Y-148577585D01*
X115582415Y-148807549D01*
X115763097Y-149077958D01*
X115887553Y-149378421D01*
X115894848Y-149415097D01*
X115942924Y-149656787D01*
X115951000Y-149697391D01*
X115951000Y-150022609D01*
X115887553Y-150341579D01*
X115763097Y-150642042D01*
X115582415Y-150912451D01*
X115352451Y-151142415D01*
X115082042Y-151323097D01*
X114781579Y-151447553D01*
X114675256Y-151468702D01*
X114462611Y-151511000D01*
X114137389Y-151511000D01*
X113924744Y-151468702D01*
X113818421Y-151447553D01*
X113517958Y-151323097D01*
X113247549Y-151142415D01*
X113017585Y-150912451D01*
X112836903Y-150642042D01*
X112712447Y-150341579D01*
X112649000Y-150022609D01*
X112649000Y-149697391D01*
X112657077Y-149656787D01*
X112705152Y-149415097D01*
X112712447Y-149378421D01*
X112836903Y-149077958D01*
X113017585Y-148807549D01*
X113247549Y-148577585D01*
X113517958Y-148396903D01*
X113818421Y-148272447D01*
X113924744Y-148251298D01*
X114137389Y-148209000D01*
X114462611Y-148209000D01*
X114675256Y-148251298D01*
G37*
G36*
X109595256Y-148251298D02*
G01*
X109701579Y-148272447D01*
X110002042Y-148396903D01*
X110272451Y-148577585D01*
X110502415Y-148807549D01*
X110683097Y-149077958D01*
X110807553Y-149378421D01*
X110814848Y-149415097D01*
X110862924Y-149656787D01*
X110871000Y-149697391D01*
X110871000Y-150022609D01*
X110807553Y-150341579D01*
X110683097Y-150642042D01*
X110502415Y-150912451D01*
X110272451Y-151142415D01*
X110002042Y-151323097D01*
X109701579Y-151447553D01*
X109595256Y-151468702D01*
X109382611Y-151511000D01*
X109057389Y-151511000D01*
X108844744Y-151468702D01*
X108738421Y-151447553D01*
X108437958Y-151323097D01*
X108167549Y-151142415D01*
X107937585Y-150912451D01*
X107756903Y-150642042D01*
X107632447Y-150341579D01*
X107569000Y-150022609D01*
X107569000Y-149697391D01*
X107577077Y-149656787D01*
X107625152Y-149415097D01*
X107632447Y-149378421D01*
X107756903Y-149077958D01*
X107937585Y-148807549D01*
X108167549Y-148577585D01*
X108437958Y-148396903D01*
X108738421Y-148272447D01*
X108844744Y-148251298D01*
X109057389Y-148209000D01*
X109382611Y-148209000D01*
X109595256Y-148251298D01*
G37*
G36*
X119755256Y-148251298D02*
G01*
X119861579Y-148272447D01*
X120162042Y-148396903D01*
X120432451Y-148577585D01*
X120662415Y-148807549D01*
X120843097Y-149077958D01*
X120967553Y-149378421D01*
X120974848Y-149415097D01*
X121022924Y-149656787D01*
X121031000Y-149697391D01*
X121031000Y-150022609D01*
X120967553Y-150341579D01*
X120843097Y-150642042D01*
X120662415Y-150912451D01*
X120432451Y-151142415D01*
X120162042Y-151323097D01*
X119861579Y-151447553D01*
X119755256Y-151468702D01*
X119542611Y-151511000D01*
X119217389Y-151511000D01*
X119004744Y-151468702D01*
X118898421Y-151447553D01*
X118597958Y-151323097D01*
X118327549Y-151142415D01*
X118097585Y-150912451D01*
X117916903Y-150642042D01*
X117792447Y-150341579D01*
X117729000Y-150022609D01*
X117729000Y-149697391D01*
X117737077Y-149656787D01*
X117785152Y-149415097D01*
X117792447Y-149378421D01*
X117916903Y-149077958D01*
X118097585Y-148807549D01*
X118327549Y-148577585D01*
X118597958Y-148396903D01*
X118898421Y-148272447D01*
X119004744Y-148251298D01*
X119217389Y-148209000D01*
X119542611Y-148209000D01*
X119755256Y-148251298D01*
G37*
G36*
X134995256Y-148251298D02*
G01*
X135101579Y-148272447D01*
X135402042Y-148396903D01*
X135672451Y-148577585D01*
X135902415Y-148807549D01*
X136083097Y-149077958D01*
X136207553Y-149378421D01*
X136214848Y-149415097D01*
X136262924Y-149656787D01*
X136271000Y-149697391D01*
X136271000Y-150022609D01*
X136207553Y-150341579D01*
X136083097Y-150642042D01*
X135902415Y-150912451D01*
X135672451Y-151142415D01*
X135402042Y-151323097D01*
X135101579Y-151447553D01*
X134995256Y-151468702D01*
X134782611Y-151511000D01*
X134457389Y-151511000D01*
X134244744Y-151468702D01*
X134138421Y-151447553D01*
X133837958Y-151323097D01*
X133567549Y-151142415D01*
X133337585Y-150912451D01*
X133156903Y-150642042D01*
X133032447Y-150341579D01*
X132969000Y-150022609D01*
X132969000Y-149697391D01*
X132977077Y-149656787D01*
X133025152Y-149415097D01*
X133032447Y-149378421D01*
X133156903Y-149077958D01*
X133337585Y-148807549D01*
X133567549Y-148577585D01*
X133837958Y-148396903D01*
X134138421Y-148272447D01*
X134244744Y-148251298D01*
X134457389Y-148209000D01*
X134782611Y-148209000D01*
X134995256Y-148251298D01*
G37*
G36*
X94355256Y-148251298D02*
G01*
X94461579Y-148272447D01*
X94762042Y-148396903D01*
X95032451Y-148577585D01*
X95262415Y-148807549D01*
X95443097Y-149077958D01*
X95567553Y-149378421D01*
X95574848Y-149415097D01*
X95622924Y-149656787D01*
X95631000Y-149697391D01*
X95631000Y-150022609D01*
X95567553Y-150341579D01*
X95443097Y-150642042D01*
X95262415Y-150912451D01*
X95032451Y-151142415D01*
X94762042Y-151323097D01*
X94461579Y-151447553D01*
X94355256Y-151468702D01*
X94142611Y-151511000D01*
X93817389Y-151511000D01*
X93604744Y-151468702D01*
X93498421Y-151447553D01*
X93197958Y-151323097D01*
X92927549Y-151142415D01*
X92697585Y-150912451D01*
X92516903Y-150642042D01*
X92392447Y-150341579D01*
X92329000Y-150022609D01*
X92329000Y-149697391D01*
X92337077Y-149656787D01*
X92385152Y-149415097D01*
X92392447Y-149378421D01*
X92516903Y-149077958D01*
X92697585Y-148807549D01*
X92927549Y-148577585D01*
X93197958Y-148396903D01*
X93498421Y-148272447D01*
X93604744Y-148251298D01*
X93817389Y-148209000D01*
X94142611Y-148209000D01*
X94355256Y-148251298D01*
G37*
G36*
X140075256Y-148251298D02*
G01*
X140181579Y-148272447D01*
X140482042Y-148396903D01*
X140752451Y-148577585D01*
X140982415Y-148807549D01*
X141163097Y-149077958D01*
X141287553Y-149378421D01*
X141294848Y-149415097D01*
X141342924Y-149656787D01*
X141351000Y-149697391D01*
X141351000Y-150022609D01*
X141287553Y-150341579D01*
X141163097Y-150642042D01*
X140982415Y-150912451D01*
X140752451Y-151142415D01*
X140482042Y-151323097D01*
X140181579Y-151447553D01*
X140075256Y-151468702D01*
X139862611Y-151511000D01*
X139537389Y-151511000D01*
X139324744Y-151468702D01*
X139218421Y-151447553D01*
X138917958Y-151323097D01*
X138647549Y-151142415D01*
X138417585Y-150912451D01*
X138236903Y-150642042D01*
X138112447Y-150341579D01*
X138049000Y-150022609D01*
X138049000Y-149697391D01*
X138057077Y-149656787D01*
X138105152Y-149415097D01*
X138112447Y-149378421D01*
X138236903Y-149077958D01*
X138417585Y-148807549D01*
X138647549Y-148577585D01*
X138917958Y-148396903D01*
X139218421Y-148272447D01*
X139324744Y-148251298D01*
X139537389Y-148209000D01*
X139862611Y-148209000D01*
X140075256Y-148251298D01*
G37*
G36*
X104515256Y-148251298D02*
G01*
X104621579Y-148272447D01*
X104922042Y-148396903D01*
X105192451Y-148577585D01*
X105422415Y-148807549D01*
X105603097Y-149077958D01*
X105727553Y-149378421D01*
X105734848Y-149415097D01*
X105782924Y-149656787D01*
X105791000Y-149697391D01*
X105791000Y-150022609D01*
X105727553Y-150341579D01*
X105603097Y-150642042D01*
X105422415Y-150912451D01*
X105192451Y-151142415D01*
X104922042Y-151323097D01*
X104621579Y-151447553D01*
X104515256Y-151468702D01*
X104302611Y-151511000D01*
X103977389Y-151511000D01*
X103764744Y-151468702D01*
X103658421Y-151447553D01*
X103357958Y-151323097D01*
X103087549Y-151142415D01*
X102857585Y-150912451D01*
X102676903Y-150642042D01*
X102552447Y-150341579D01*
X102489000Y-150022609D01*
X102489000Y-149697391D01*
X102497077Y-149656787D01*
X102545152Y-149415097D01*
X102552447Y-149378421D01*
X102676903Y-149077958D01*
X102857585Y-148807549D01*
X103087549Y-148577585D01*
X103357958Y-148396903D01*
X103658421Y-148272447D01*
X103764744Y-148251298D01*
X103977389Y-148209000D01*
X104302611Y-148209000D01*
X104515256Y-148251298D01*
G37*
G36*
X99435256Y-148251298D02*
G01*
X99541579Y-148272447D01*
X99842042Y-148396903D01*
X100112451Y-148577585D01*
X100342415Y-148807549D01*
X100523097Y-149077958D01*
X100647553Y-149378421D01*
X100654848Y-149415097D01*
X100702924Y-149656787D01*
X100711000Y-149697391D01*
X100711000Y-150022609D01*
X100647553Y-150341579D01*
X100523097Y-150642042D01*
X100342415Y-150912451D01*
X100112451Y-151142415D01*
X99842042Y-151323097D01*
X99541579Y-151447553D01*
X99435256Y-151468702D01*
X99222611Y-151511000D01*
X98897389Y-151511000D01*
X98684744Y-151468702D01*
X98578421Y-151447553D01*
X98277958Y-151323097D01*
X98007549Y-151142415D01*
X97777585Y-150912451D01*
X97596903Y-150642042D01*
X97472447Y-150341579D01*
X97409000Y-150022609D01*
X97409000Y-149697391D01*
X97417077Y-149656787D01*
X97465152Y-149415097D01*
X97472447Y-149378421D01*
X97596903Y-149077958D01*
X97777585Y-148807549D01*
X98007549Y-148577585D01*
X98277958Y-148396903D01*
X98578421Y-148272447D01*
X98684744Y-148251298D01*
X98897389Y-148209000D01*
X99222611Y-148209000D01*
X99435256Y-148251298D01*
G37*
G36*
X202871564Y-149404389D02*
G01*
X203062833Y-149483615D01*
X203062835Y-149483616D01*
X203234973Y-149598635D01*
X203381365Y-149745027D01*
X203487062Y-149903213D01*
X203496385Y-149917167D01*
X203575611Y-150108436D01*
X203616000Y-150311484D01*
X203616000Y-150518516D01*
X203575611Y-150721564D01*
X203506413Y-150888622D01*
X203496384Y-150912835D01*
X203381365Y-151084973D01*
X203234973Y-151231365D01*
X203062835Y-151346384D01*
X203062834Y-151346385D01*
X203062833Y-151346385D01*
X202871564Y-151425611D01*
X202668516Y-151466000D01*
X202461484Y-151466000D01*
X202258436Y-151425611D01*
X202067167Y-151346385D01*
X202067166Y-151346385D01*
X202067165Y-151346384D01*
X201895027Y-151231365D01*
X201748635Y-151084973D01*
X201633616Y-150912835D01*
X201623587Y-150888622D01*
X201554389Y-150721564D01*
X201514000Y-150518516D01*
X201514000Y-150311484D01*
X201554389Y-150108436D01*
X201633615Y-149917167D01*
X201642939Y-149903213D01*
X201748635Y-149745027D01*
X201895027Y-149598635D01*
X202067165Y-149483616D01*
X202067167Y-149483615D01*
X202258436Y-149404389D01*
X202461484Y-149364000D01*
X202668516Y-149364000D01*
X202871564Y-149404389D01*
G37*
G36*
X216899903Y-148577075D02*
G01*
X217031003Y-148631378D01*
X217127571Y-148671378D01*
X217332466Y-148808285D01*
X217506715Y-148982534D01*
X217616896Y-149147431D01*
X217643623Y-149187431D01*
X217737925Y-149415097D01*
X217786000Y-149656786D01*
X217786000Y-149903214D01*
X217737925Y-150144903D01*
X217653202Y-150349444D01*
X217643622Y-150372571D01*
X217506715Y-150577466D01*
X217332466Y-150751715D01*
X217127571Y-150888622D01*
X217127570Y-150888623D01*
X217127569Y-150888623D01*
X216899903Y-150982925D01*
X216658214Y-151031000D01*
X216411786Y-151031000D01*
X216170097Y-150982925D01*
X215942431Y-150888623D01*
X215942430Y-150888623D01*
X215942429Y-150888622D01*
X215737534Y-150751715D01*
X215563285Y-150577466D01*
X215426378Y-150372571D01*
X215416799Y-150349444D01*
X215332075Y-150144903D01*
X215284000Y-149903214D01*
X215284000Y-149656786D01*
X215332075Y-149415097D01*
X215426377Y-149187431D01*
X215453104Y-149147431D01*
X215563285Y-148982534D01*
X215737534Y-148808285D01*
X215942429Y-148671378D01*
X216038998Y-148631378D01*
X216170097Y-148577075D01*
X216411786Y-148529000D01*
X216658214Y-148529000D01*
X216899903Y-148577075D01*
G37*
G36*
X155264307Y-148529000D02*
G01*
X155304903Y-148537075D01*
X155532571Y-148631378D01*
X155737466Y-148768285D01*
X155911715Y-148942534D01*
X156002204Y-149077960D01*
X156048623Y-149147431D01*
X156142925Y-149375097D01*
X156191000Y-149616786D01*
X156191000Y-149863214D01*
X156142925Y-150104903D01*
X156126357Y-150144903D01*
X156048622Y-150332571D01*
X155911715Y-150537466D01*
X155737466Y-150711715D01*
X155532571Y-150848622D01*
X155532570Y-150848623D01*
X155532569Y-150848623D01*
X155304903Y-150942925D01*
X155063214Y-150991000D01*
X154816786Y-150991000D01*
X154575097Y-150942925D01*
X154347431Y-150848623D01*
X154347430Y-150848623D01*
X154347429Y-150848622D01*
X154142534Y-150711715D01*
X153968285Y-150537466D01*
X153831378Y-150332571D01*
X153753644Y-150144903D01*
X153737075Y-150104903D01*
X153689000Y-149863214D01*
X153689000Y-149616786D01*
X153737075Y-149375097D01*
X153831377Y-149147431D01*
X153877796Y-149077960D01*
X153968285Y-148942534D01*
X154142534Y-148768285D01*
X154347429Y-148631378D01*
X154575097Y-148537075D01*
X154615693Y-148529000D01*
X154816786Y-148489000D01*
X155063214Y-148489000D01*
X155264307Y-148529000D01*
G37*
G36*
X179736000Y-149256000D02*
G01*
X177134000Y-149256000D01*
X177134000Y-146654000D01*
X179736000Y-146654000D01*
X179736000Y-149256000D01*
G37*
G36*
X203616000Y-146466000D02*
G01*
X201514000Y-146466000D01*
X201514000Y-144364000D01*
X203616000Y-144364000D01*
X203616000Y-146466000D01*
G37*
G36*
X217786000Y-146031000D02*
G01*
X215284000Y-146031000D01*
X215284000Y-143529000D01*
X217786000Y-143529000D01*
X217786000Y-146031000D01*
G37*
G36*
X156191000Y-143491000D02*
G01*
X153689000Y-143491000D01*
X153689000Y-140989000D01*
X156191000Y-140989000D01*
X156191000Y-143491000D01*
G37*
G36*
X215011000Y-135001000D02*
G01*
X211709000Y-135001000D01*
X211709000Y-131699000D01*
X215011000Y-131699000D01*
X215011000Y-135001000D01*
G37*
G36*
X108891564Y-129799389D02*
G01*
X109082833Y-129878615D01*
X109082835Y-129878616D01*
X109254973Y-129993635D01*
X109401365Y-130140027D01*
X109516385Y-130312167D01*
X109595611Y-130503436D01*
X109636000Y-130706484D01*
X109636000Y-130913516D01*
X109595611Y-131116564D01*
X109516385Y-131307833D01*
X109516384Y-131307835D01*
X109401365Y-131479973D01*
X109254973Y-131626365D01*
X109082835Y-131741384D01*
X109082834Y-131741385D01*
X109082833Y-131741385D01*
X108891564Y-131820611D01*
X108688516Y-131861000D01*
X108481484Y-131861000D01*
X108278436Y-131820611D01*
X108087167Y-131741385D01*
X108087166Y-131741385D01*
X108087165Y-131741384D01*
X107915027Y-131626365D01*
X107768635Y-131479973D01*
X107653616Y-131307835D01*
X107653615Y-131307833D01*
X107574389Y-131116564D01*
X107534000Y-130913516D01*
X107534000Y-130706484D01*
X107574389Y-130503436D01*
X107653615Y-130312167D01*
X107768635Y-130140027D01*
X107915027Y-129993635D01*
X108087165Y-129878616D01*
X108087167Y-129878615D01*
X108278436Y-129799389D01*
X108481484Y-129759000D01*
X108688516Y-129759000D01*
X108891564Y-129799389D01*
G37*
G36*
X123891564Y-129799389D02*
G01*
X124082833Y-129878615D01*
X124082835Y-129878616D01*
X124254973Y-129993635D01*
X124401365Y-130140027D01*
X124516385Y-130312167D01*
X124595611Y-130503436D01*
X124636000Y-130706484D01*
X124636000Y-130913516D01*
X124595611Y-131116564D01*
X124516385Y-131307833D01*
X124516384Y-131307835D01*
X124401365Y-131479973D01*
X124254973Y-131626365D01*
X124082835Y-131741384D01*
X124082834Y-131741385D01*
X124082833Y-131741385D01*
X123891564Y-131820611D01*
X123688516Y-131861000D01*
X123481484Y-131861000D01*
X123278436Y-131820611D01*
X123087167Y-131741385D01*
X123087166Y-131741385D01*
X123087165Y-131741384D01*
X122915027Y-131626365D01*
X122768635Y-131479973D01*
X122653616Y-131307835D01*
X122653615Y-131307833D01*
X122574389Y-131116564D01*
X122534000Y-130913516D01*
X122534000Y-130706484D01*
X122574389Y-130503436D01*
X122653615Y-130312167D01*
X122768635Y-130140027D01*
X122915027Y-129993635D01*
X123087165Y-129878616D01*
X123087167Y-129878615D01*
X123278436Y-129799389D01*
X123481484Y-129759000D01*
X123688516Y-129759000D01*
X123891564Y-129799389D01*
G37*
G36*
X232949000Y-130841000D02*
G01*
X230347000Y-130841000D01*
X230347000Y-128239000D01*
X232949000Y-128239000D01*
X232949000Y-130841000D01*
G37*
G36*
X160294034Y-128239000D02*
G01*
X160384903Y-128257075D01*
X160612571Y-128351378D01*
X160817466Y-128488285D01*
X160991715Y-128662534D01*
X161128622Y-128867429D01*
X161222925Y-129095097D01*
X161271000Y-129336787D01*
X161271000Y-129583213D01*
X161222925Y-129824903D01*
X161128622Y-130052571D01*
X160991715Y-130257466D01*
X160817466Y-130431715D01*
X160612571Y-130568622D01*
X160612570Y-130568623D01*
X160612569Y-130568623D01*
X160384903Y-130662925D01*
X160143214Y-130711000D01*
X159896786Y-130711000D01*
X159655097Y-130662925D01*
X159427431Y-130568623D01*
X159427430Y-130568623D01*
X159427429Y-130568622D01*
X159222534Y-130431715D01*
X159048285Y-130257466D01*
X158911378Y-130052571D01*
X158817075Y-129824903D01*
X158769000Y-129583213D01*
X158769000Y-129336787D01*
X158817075Y-129095097D01*
X158911378Y-128867429D01*
X159048285Y-128662534D01*
X159222534Y-128488285D01*
X159427429Y-128351378D01*
X159655097Y-128257075D01*
X159745966Y-128239000D01*
X159896786Y-128209000D01*
X160143214Y-128209000D01*
X160294034Y-128239000D01*
G37*
G36*
X189007000Y-128174000D02*
G01*
X186405000Y-128174000D01*
X186405000Y-125572000D01*
X189007000Y-125572000D01*
X189007000Y-128174000D01*
G37*
G36*
X161271000Y-125711000D02*
G01*
X158769000Y-125711000D01*
X158769000Y-123209000D01*
X161271000Y-123209000D01*
X161271000Y-125711000D01*
G37*
G36*
X118971564Y-122814389D02*
G01*
X119162833Y-122893615D01*
X119162835Y-122893616D01*
X119334973Y-123008635D01*
X119481365Y-123155027D01*
X119596385Y-123327167D01*
X119675611Y-123518436D01*
X119716000Y-123721484D01*
X119716000Y-123928516D01*
X119675611Y-124131564D01*
X119596385Y-124322833D01*
X119596384Y-124322835D01*
X119481365Y-124494973D01*
X119334973Y-124641365D01*
X119162835Y-124756384D01*
X119162834Y-124756385D01*
X119162833Y-124756385D01*
X118971564Y-124835611D01*
X118768516Y-124876000D01*
X118561484Y-124876000D01*
X118358436Y-124835611D01*
X118167167Y-124756385D01*
X118167166Y-124756385D01*
X118167165Y-124756384D01*
X117995027Y-124641365D01*
X117848635Y-124494973D01*
X117733616Y-124322835D01*
X117733615Y-124322833D01*
X117654389Y-124131564D01*
X117614000Y-123928516D01*
X117614000Y-123721484D01*
X117654389Y-123518436D01*
X117733615Y-123327167D01*
X117848635Y-123155027D01*
X117995027Y-123008635D01*
X118167165Y-122893616D01*
X118167167Y-122893615D01*
X118358436Y-122814389D01*
X118561484Y-122774000D01*
X118768516Y-122774000D01*
X118971564Y-122814389D01*
G37*
G36*
X113971564Y-122814389D02*
G01*
X114162833Y-122893615D01*
X114162835Y-122893616D01*
X114334973Y-123008635D01*
X114481365Y-123155027D01*
X114596385Y-123327167D01*
X114675611Y-123518436D01*
X114716000Y-123721484D01*
X114716000Y-123928516D01*
X114675611Y-124131564D01*
X114596385Y-124322833D01*
X114596384Y-124322835D01*
X114481365Y-124494973D01*
X114334973Y-124641365D01*
X114162835Y-124756384D01*
X114162834Y-124756385D01*
X114162833Y-124756385D01*
X113971564Y-124835611D01*
X113768516Y-124876000D01*
X113561484Y-124876000D01*
X113358436Y-124835611D01*
X113167167Y-124756385D01*
X113167166Y-124756385D01*
X113167165Y-124756384D01*
X112995027Y-124641365D01*
X112848635Y-124494973D01*
X112733616Y-124322835D01*
X112733615Y-124322833D01*
X112654389Y-124131564D01*
X112614000Y-123928516D01*
X112614000Y-123721484D01*
X112654389Y-123518436D01*
X112733615Y-123327167D01*
X112848635Y-123155027D01*
X112995027Y-123008635D01*
X113167165Y-122893616D01*
X113167167Y-122893615D01*
X113358436Y-122814389D01*
X113561484Y-122774000D01*
X113768516Y-122774000D01*
X113971564Y-122814389D01*
G37*
G36*
X173101000Y-123571000D02*
G01*
X169799000Y-123571000D01*
X169799000Y-120269000D01*
X173101000Y-120269000D01*
X173101000Y-123571000D01*
G37*
G36*
X129926564Y-120401389D02*
G01*
X130117833Y-120480615D01*
X130117835Y-120480616D01*
X130127974Y-120487391D01*
X130289973Y-120595635D01*
X130436365Y-120742027D01*
X130551385Y-120914167D01*
X130630611Y-121105436D01*
X130671000Y-121308484D01*
X130671000Y-121515516D01*
X130630611Y-121718564D01*
X130551385Y-121909833D01*
X130551384Y-121909835D01*
X130436365Y-122081973D01*
X130289973Y-122228365D01*
X130117835Y-122343384D01*
X130117834Y-122343385D01*
X130117833Y-122343385D01*
X129926564Y-122422611D01*
X129723516Y-122463000D01*
X129516484Y-122463000D01*
X129313436Y-122422611D01*
X129122167Y-122343385D01*
X129122166Y-122343385D01*
X129122165Y-122343384D01*
X128950027Y-122228365D01*
X128803635Y-122081973D01*
X128688616Y-121909835D01*
X128688615Y-121909833D01*
X128609389Y-121718564D01*
X128569000Y-121515516D01*
X128569000Y-121308484D01*
X128609389Y-121105436D01*
X128688615Y-120914167D01*
X128803635Y-120742027D01*
X128950027Y-120595635D01*
X129112026Y-120487391D01*
X129122165Y-120480616D01*
X129122167Y-120480615D01*
X129313436Y-120401389D01*
X129516484Y-120361000D01*
X129723516Y-120361000D01*
X129926564Y-120401389D01*
G37*
G36*
X135671000Y-122463000D02*
G01*
X133569000Y-122463000D01*
X133569000Y-120361000D01*
X135671000Y-120361000D01*
X135671000Y-122463000D01*
G37*
G36*
X213735256Y-119041298D02*
G01*
X213841579Y-119062447D01*
X214054037Y-119150450D01*
X214074505Y-119158928D01*
X214142042Y-119186903D01*
X214412451Y-119367585D01*
X214642415Y-119597549D01*
X214642416Y-119597551D01*
X214823098Y-119867960D01*
X214947553Y-120168422D01*
X215009653Y-120480616D01*
X215011000Y-120487391D01*
X215011000Y-120812609D01*
X214947553Y-121131579D01*
X214823097Y-121432042D01*
X214642415Y-121702451D01*
X214412451Y-121932415D01*
X214142042Y-122113097D01*
X213841579Y-122237553D01*
X213735256Y-122258702D01*
X213522611Y-122301000D01*
X213197389Y-122301000D01*
X212984744Y-122258702D01*
X212878421Y-122237553D01*
X212577958Y-122113097D01*
X212307549Y-121932415D01*
X212077585Y-121702451D01*
X211896903Y-121432042D01*
X211772447Y-121131579D01*
X211709000Y-120812609D01*
X211709000Y-120487391D01*
X211710348Y-120480616D01*
X211772447Y-120168422D01*
X211896902Y-119867960D01*
X212077584Y-119597551D01*
X212077585Y-119597549D01*
X212307549Y-119367585D01*
X212577958Y-119186903D01*
X212645496Y-119158928D01*
X212665963Y-119150450D01*
X212878421Y-119062447D01*
X212984744Y-119041298D01*
X213197389Y-118999000D01*
X213522611Y-118999000D01*
X213735256Y-119041298D01*
G37*
G36*
X229390331Y-116028211D02*
G01*
X229718092Y-116163974D01*
X230013070Y-116361072D01*
X230263928Y-116611930D01*
X230461026Y-116906908D01*
X230596789Y-117234669D01*
X230666000Y-117582616D01*
X230666000Y-117937384D01*
X230596789Y-118285331D01*
X230461026Y-118613092D01*
X230263928Y-118908070D01*
X230013070Y-119158928D01*
X229718092Y-119356026D01*
X229390331Y-119491789D01*
X229042384Y-119561000D01*
X228687616Y-119561000D01*
X228339669Y-119491789D01*
X228011908Y-119356026D01*
X227716930Y-119158928D01*
X227466072Y-118908070D01*
X227268974Y-118613092D01*
X227133211Y-118285331D01*
X227064000Y-117937384D01*
X227064000Y-117582616D01*
X227133211Y-117234669D01*
X227268974Y-116906908D01*
X227466072Y-116611930D01*
X227716930Y-116361072D01*
X228011908Y-116163974D01*
X228339669Y-116028211D01*
X228687616Y-115959000D01*
X229042384Y-115959000D01*
X229390331Y-116028211D01*
G37*
G36*
X160871000Y-116421000D02*
G01*
X159169000Y-116421000D01*
X159169000Y-114719000D01*
X160871000Y-114719000D01*
X160871000Y-116421000D01*
G37*
G36*
X207316564Y-111939389D02*
G01*
X207507833Y-112018615D01*
X207507835Y-112018616D01*
X207613172Y-112089000D01*
X207679973Y-112133635D01*
X207826365Y-112280027D01*
X207941385Y-112452167D01*
X208020611Y-112643436D01*
X208061000Y-112846484D01*
X208061000Y-113053516D01*
X208020611Y-113256564D01*
X207954246Y-113416784D01*
X207941384Y-113447835D01*
X207826365Y-113619973D01*
X207679973Y-113766365D01*
X207507835Y-113881384D01*
X207507834Y-113881385D01*
X207507833Y-113881385D01*
X207316564Y-113960611D01*
X207113516Y-114001000D01*
X206906484Y-114001000D01*
X206703436Y-113960611D01*
X206512167Y-113881385D01*
X206512166Y-113881385D01*
X206512165Y-113881384D01*
X206340027Y-113766365D01*
X206193635Y-113619973D01*
X206078616Y-113447835D01*
X206065754Y-113416784D01*
X205999389Y-113256564D01*
X205959000Y-113053516D01*
X205959000Y-112846484D01*
X205999389Y-112643436D01*
X206078615Y-112452167D01*
X206193635Y-112280027D01*
X206340027Y-112133635D01*
X206406828Y-112089000D01*
X206512165Y-112018616D01*
X206512167Y-112018615D01*
X206703436Y-111939389D01*
X206906484Y-111899000D01*
X207113516Y-111899000D01*
X207316564Y-111939389D01*
G37*
G36*
X224268512Y-112093927D02*
G01*
X224417812Y-112123624D01*
X224581784Y-112191544D01*
X224729354Y-112290147D01*
X224854853Y-112415646D01*
X224953456Y-112563216D01*
X225021376Y-112727188D01*
X225032405Y-112782638D01*
X225039516Y-112806078D01*
X225051067Y-112827689D01*
X225066613Y-112846631D01*
X225085555Y-112862176D01*
X225107165Y-112873727D01*
X225130614Y-112880840D01*
X225155000Y-112883242D01*
X225179387Y-112880840D01*
X225202835Y-112873727D01*
X225224446Y-112862176D01*
X225243388Y-112846630D01*
X225258933Y-112827688D01*
X225270484Y-112806078D01*
X225277595Y-112782638D01*
X225288624Y-112727188D01*
X225356544Y-112563216D01*
X225455147Y-112415646D01*
X225580646Y-112290147D01*
X225728216Y-112191544D01*
X225892188Y-112123624D01*
X226041488Y-112093927D01*
X226066258Y-112089000D01*
X226243742Y-112089000D01*
X226268512Y-112093927D01*
X226417812Y-112123624D01*
X226581784Y-112191544D01*
X226729354Y-112290147D01*
X226854853Y-112415646D01*
X226953456Y-112563216D01*
X227021376Y-112727188D01*
X227056000Y-112901259D01*
X227056000Y-113078741D01*
X227021376Y-113252812D01*
X226953456Y-113416784D01*
X226854853Y-113564354D01*
X226729354Y-113689853D01*
X226581784Y-113788456D01*
X226417812Y-113856376D01*
X226268512Y-113886073D01*
X226243742Y-113891000D01*
X226066258Y-113891000D01*
X226041488Y-113886073D01*
X225892188Y-113856376D01*
X225728216Y-113788456D01*
X225580646Y-113689853D01*
X225455147Y-113564354D01*
X225356544Y-113416784D01*
X225288624Y-113252812D01*
X225277595Y-113197362D01*
X225270484Y-113173922D01*
X225258933Y-113152311D01*
X225243387Y-113133369D01*
X225224445Y-113117824D01*
X225202835Y-113106273D01*
X225179386Y-113099160D01*
X225155000Y-113096758D01*
X225130613Y-113099160D01*
X225107165Y-113106273D01*
X225085554Y-113117824D01*
X225066612Y-113133370D01*
X225051067Y-113152312D01*
X225039516Y-113173922D01*
X225032405Y-113197362D01*
X225021376Y-113252812D01*
X224953456Y-113416784D01*
X224854853Y-113564354D01*
X224729354Y-113689853D01*
X224581784Y-113788456D01*
X224417812Y-113856376D01*
X224268512Y-113886073D01*
X224243742Y-113891000D01*
X224066258Y-113891000D01*
X224041488Y-113886073D01*
X223892188Y-113856376D01*
X223728216Y-113788456D01*
X223580646Y-113689853D01*
X223455147Y-113564354D01*
X223356544Y-113416784D01*
X223288624Y-113252812D01*
X223254000Y-113078741D01*
X223254000Y-112901259D01*
X223288624Y-112727188D01*
X223356544Y-112563216D01*
X223455147Y-112415646D01*
X223580646Y-112290147D01*
X223728216Y-112191544D01*
X223892188Y-112123624D01*
X224041488Y-112093927D01*
X224066258Y-112089000D01*
X224243742Y-112089000D01*
X224268512Y-112093927D01*
G37*
G36*
X160268228Y-111251703D02*
G01*
X160423100Y-111315853D01*
X160562481Y-111408985D01*
X160681015Y-111527519D01*
X160774147Y-111666900D01*
X160838297Y-111821772D01*
X160871000Y-111986184D01*
X160871000Y-112153816D01*
X160838297Y-112318228D01*
X160774147Y-112473100D01*
X160681015Y-112612481D01*
X160562481Y-112731015D01*
X160423100Y-112824147D01*
X160268228Y-112888297D01*
X160103816Y-112921000D01*
X159936184Y-112921000D01*
X159771772Y-112888297D01*
X159616900Y-112824147D01*
X159477519Y-112731015D01*
X159358985Y-112612481D01*
X159265853Y-112473100D01*
X159201703Y-112318228D01*
X159169000Y-112153816D01*
X159169000Y-111986184D01*
X159201703Y-111821772D01*
X159265853Y-111666900D01*
X159358985Y-111527519D01*
X159477519Y-111408985D01*
X159616900Y-111315853D01*
X159771772Y-111251703D01*
X159936184Y-111219000D01*
X160103816Y-111219000D01*
X160268228Y-111251703D01*
G37*
G36*
X225056000Y-110160383D02*
G01*
X225058402Y-110184769D01*
X225065515Y-110208218D01*
X225077066Y-110229829D01*
X225092611Y-110248771D01*
X225111553Y-110264316D01*
X225133164Y-110275867D01*
X225156613Y-110282980D01*
X225180999Y-110285382D01*
X225205385Y-110282980D01*
X225228834Y-110275867D01*
X225250445Y-110264316D01*
X225269387Y-110248771D01*
X225284932Y-110229829D01*
X225296477Y-110208229D01*
X225356544Y-110063216D01*
X225455147Y-109915646D01*
X225580646Y-109790147D01*
X225728216Y-109691544D01*
X225892188Y-109623624D01*
X226041488Y-109593927D01*
X226066258Y-109589000D01*
X226243742Y-109589000D01*
X226268512Y-109593927D01*
X226417812Y-109623624D01*
X226581784Y-109691544D01*
X226729354Y-109790147D01*
X226854853Y-109915646D01*
X226953456Y-110063216D01*
X227021376Y-110227188D01*
X227056000Y-110401259D01*
X227056000Y-110578741D01*
X227021376Y-110752812D01*
X226953456Y-110916784D01*
X226854853Y-111064354D01*
X226729354Y-111189853D01*
X226581784Y-111288456D01*
X226417812Y-111356376D01*
X226268512Y-111386073D01*
X226243742Y-111391000D01*
X226066258Y-111391000D01*
X226041488Y-111386073D01*
X225892188Y-111356376D01*
X225728216Y-111288456D01*
X225580646Y-111189853D01*
X225455147Y-111064354D01*
X225356544Y-110916784D01*
X225296477Y-110771771D01*
X225284932Y-110750171D01*
X225269387Y-110731229D01*
X225250445Y-110715684D01*
X225228834Y-110704133D01*
X225205385Y-110697020D01*
X225180999Y-110694618D01*
X225156613Y-110697020D01*
X225133164Y-110704133D01*
X225111553Y-110715684D01*
X225092611Y-110731229D01*
X225077066Y-110750171D01*
X225065515Y-110771782D01*
X225058402Y-110795231D01*
X225056000Y-110819617D01*
X225056000Y-111391000D01*
X223254000Y-111391000D01*
X223254000Y-109589000D01*
X225056000Y-109589000D01*
X225056000Y-110160383D01*
G37*
G36*
X171825256Y-107611298D02*
G01*
X171931579Y-107632447D01*
X172232042Y-107756903D01*
X172502451Y-107937585D01*
X172732415Y-108167549D01*
X172913097Y-108437958D01*
X173037553Y-108738421D01*
X173101000Y-109057391D01*
X173101000Y-109382609D01*
X173037553Y-109701579D01*
X172913097Y-110002042D01*
X172732415Y-110272451D01*
X172502451Y-110502415D01*
X172232042Y-110683097D01*
X171931579Y-110807553D01*
X171870929Y-110819617D01*
X171612611Y-110871000D01*
X171287389Y-110871000D01*
X171029071Y-110819617D01*
X170968421Y-110807553D01*
X170667958Y-110683097D01*
X170397549Y-110502415D01*
X170167585Y-110272451D01*
X169986903Y-110002042D01*
X169862447Y-109701579D01*
X169799000Y-109382609D01*
X169799000Y-109057391D01*
X169862447Y-108738421D01*
X169986903Y-108437958D01*
X170167585Y-108167549D01*
X170397549Y-107937585D01*
X170667958Y-107756903D01*
X170968421Y-107632447D01*
X171074744Y-107611298D01*
X171287389Y-107569000D01*
X171612611Y-107569000D01*
X171825256Y-107611298D01*
G37*
G36*
X208061000Y-109001000D02*
G01*
X205959000Y-109001000D01*
X205959000Y-106899000D01*
X208061000Y-106899000D01*
X208061000Y-109001000D01*
G37*
G36*
X229390331Y-103988211D02*
G01*
X229718092Y-104123974D01*
X230013070Y-104321072D01*
X230263928Y-104571930D01*
X230461026Y-104866908D01*
X230596789Y-105194669D01*
X230666000Y-105542616D01*
X230666000Y-105897384D01*
X230596789Y-106245331D01*
X230461026Y-106573092D01*
X230263928Y-106868070D01*
X230013070Y-107118928D01*
X229718092Y-107316026D01*
X229390331Y-107451789D01*
X229042384Y-107521000D01*
X228687616Y-107521000D01*
X228339669Y-107451789D01*
X228011908Y-107316026D01*
X227716930Y-107118928D01*
X227466072Y-106868070D01*
X227268974Y-106573092D01*
X227133211Y-106245331D01*
X227064000Y-105897384D01*
X227064000Y-105542616D01*
X227133211Y-105194669D01*
X227268974Y-104866908D01*
X227466072Y-104571930D01*
X227716930Y-104321072D01*
X228011908Y-104123974D01*
X228339669Y-103988211D01*
X228687616Y-103919000D01*
X229042384Y-103919000D01*
X229390331Y-103988211D01*
G37*
G36*
X82663512Y-98798927D02*
G01*
X82812812Y-98828624D01*
X82976784Y-98896544D01*
X83124354Y-98995147D01*
X83249853Y-99120646D01*
X83348456Y-99268216D01*
X83416376Y-99432188D01*
X83451000Y-99606259D01*
X83451000Y-99783741D01*
X83416376Y-99957812D01*
X83348456Y-100121784D01*
X83249853Y-100269354D01*
X83124354Y-100394853D01*
X82976784Y-100493456D01*
X82812812Y-100561376D01*
X82663512Y-100591073D01*
X82638742Y-100596000D01*
X82461258Y-100596000D01*
X82436488Y-100591073D01*
X82287188Y-100561376D01*
X82123216Y-100493456D01*
X81975646Y-100394853D01*
X81850147Y-100269354D01*
X81751544Y-100121784D01*
X81683624Y-99957812D01*
X81649000Y-99783741D01*
X81649000Y-99606259D01*
X81683624Y-99432188D01*
X81751544Y-99268216D01*
X81850147Y-99120646D01*
X81975646Y-98995147D01*
X82123216Y-98896544D01*
X82287188Y-98828624D01*
X82436488Y-98798927D01*
X82461258Y-98794000D01*
X82638742Y-98794000D01*
X82663512Y-98798927D01*
G37*
G36*
X232673254Y-96077818D02*
G01*
X233046511Y-96232426D01*
X233046513Y-96232427D01*
X233130619Y-96288625D01*
X233382436Y-96456884D01*
X233668116Y-96742564D01*
X233892574Y-97078489D01*
X234047182Y-97451746D01*
X234126000Y-97847993D01*
X234126000Y-98252007D01*
X234047182Y-98648254D01*
X233986812Y-98794000D01*
X233892573Y-99021513D01*
X233668116Y-99357436D01*
X233382436Y-99643116D01*
X233046513Y-99867573D01*
X233046512Y-99867574D01*
X233046511Y-99867574D01*
X232673254Y-100022182D01*
X232277007Y-100101000D01*
X231872993Y-100101000D01*
X231476746Y-100022182D01*
X231103489Y-99867574D01*
X231103488Y-99867574D01*
X231103487Y-99867573D01*
X230767564Y-99643116D01*
X230481884Y-99357436D01*
X230257427Y-99021513D01*
X230163188Y-98794000D01*
X230102818Y-98648254D01*
X230024000Y-98252007D01*
X230024000Y-97847993D01*
X230102818Y-97451746D01*
X230257426Y-97078489D01*
X230481884Y-96742564D01*
X230767564Y-96456884D01*
X231019381Y-96288625D01*
X231103487Y-96232427D01*
X231103489Y-96232426D01*
X231476746Y-96077818D01*
X231872993Y-95999000D01*
X232277007Y-95999000D01*
X232673254Y-96077818D01*
G37*
G36*
X82663512Y-96258927D02*
G01*
X82812812Y-96288624D01*
X82976784Y-96356544D01*
X83124354Y-96455147D01*
X83249853Y-96580646D01*
X83348456Y-96728216D01*
X83416376Y-96892188D01*
X83451000Y-97066259D01*
X83451000Y-97243741D01*
X83416376Y-97417812D01*
X83348456Y-97581784D01*
X83249853Y-97729354D01*
X83124354Y-97854853D01*
X82976784Y-97953456D01*
X82812812Y-98021376D01*
X82663512Y-98051073D01*
X82638742Y-98056000D01*
X82461258Y-98056000D01*
X82436488Y-98051073D01*
X82287188Y-98021376D01*
X82123216Y-97953456D01*
X81975646Y-97854853D01*
X81850147Y-97729354D01*
X81751544Y-97581784D01*
X81683624Y-97417812D01*
X81649000Y-97243741D01*
X81649000Y-97066259D01*
X81683624Y-96892188D01*
X81751544Y-96728216D01*
X81850147Y-96580646D01*
X81975646Y-96455147D01*
X82123216Y-96356544D01*
X82287188Y-96288624D01*
X82436488Y-96258927D01*
X82461258Y-96254000D01*
X82638742Y-96254000D01*
X82663512Y-96258927D01*
G37*
G36*
X82663512Y-93718927D02*
G01*
X82812812Y-93748624D01*
X82976784Y-93816544D01*
X83124354Y-93915147D01*
X83249853Y-94040646D01*
X83348456Y-94188216D01*
X83416376Y-94352188D01*
X83451000Y-94526259D01*
X83451000Y-94703741D01*
X83416376Y-94877812D01*
X83348456Y-95041784D01*
X83249853Y-95189354D01*
X83124354Y-95314853D01*
X82976784Y-95413456D01*
X82812812Y-95481376D01*
X82663512Y-95511073D01*
X82638742Y-95516000D01*
X82461258Y-95516000D01*
X82436488Y-95511073D01*
X82287188Y-95481376D01*
X82123216Y-95413456D01*
X81975646Y-95314853D01*
X81850147Y-95189354D01*
X81751544Y-95041784D01*
X81683624Y-94877812D01*
X81649000Y-94703741D01*
X81649000Y-94526259D01*
X81683624Y-94352188D01*
X81751544Y-94188216D01*
X81850147Y-94040646D01*
X81975646Y-93915147D01*
X82123216Y-93816544D01*
X82287188Y-93748624D01*
X82436488Y-93718927D01*
X82461258Y-93714000D01*
X82638742Y-93714000D01*
X82663512Y-93718927D01*
G37*
G36*
X82663512Y-91178927D02*
G01*
X82812812Y-91208624D01*
X82976784Y-91276544D01*
X83124354Y-91375147D01*
X83249853Y-91500646D01*
X83348456Y-91648216D01*
X83416376Y-91812188D01*
X83451000Y-91986259D01*
X83451000Y-92163741D01*
X83416376Y-92337812D01*
X83348456Y-92501784D01*
X83249853Y-92649354D01*
X83124354Y-92774853D01*
X82976784Y-92873456D01*
X82812812Y-92941376D01*
X82663512Y-92971073D01*
X82638742Y-92976000D01*
X82461258Y-92976000D01*
X82436488Y-92971073D01*
X82287188Y-92941376D01*
X82123216Y-92873456D01*
X81975646Y-92774853D01*
X81850147Y-92649354D01*
X81751544Y-92501784D01*
X81683624Y-92337812D01*
X81649000Y-92163741D01*
X81649000Y-91986259D01*
X81683624Y-91812188D01*
X81751544Y-91648216D01*
X81850147Y-91500646D01*
X81975646Y-91375147D01*
X82123216Y-91276544D01*
X82287188Y-91208624D01*
X82436488Y-91178927D01*
X82461258Y-91174000D01*
X82638742Y-91174000D01*
X82663512Y-91178927D01*
G37*
G36*
X232023228Y-90271703D02*
G01*
X232178100Y-90335853D01*
X232317481Y-90428985D01*
X232436015Y-90547519D01*
X232529147Y-90686900D01*
X232593297Y-90841772D01*
X232626000Y-91006184D01*
X232626000Y-91173816D01*
X232593297Y-91338228D01*
X232529147Y-91493100D01*
X232436015Y-91632481D01*
X232317481Y-91751015D01*
X232178100Y-91844147D01*
X232023228Y-91908297D01*
X231858816Y-91941000D01*
X231691184Y-91941000D01*
X231526772Y-91908297D01*
X231371900Y-91844147D01*
X231232519Y-91751015D01*
X231113985Y-91632481D01*
X231020853Y-91493100D01*
X230956703Y-91338228D01*
X230924000Y-91173816D01*
X230924000Y-91006184D01*
X230956703Y-90841772D01*
X231020853Y-90686900D01*
X231113985Y-90547519D01*
X231232519Y-90428985D01*
X231371900Y-90335853D01*
X231526772Y-90271703D01*
X231691184Y-90239000D01*
X231858816Y-90239000D01*
X232023228Y-90271703D01*
G37*
G36*
X234863228Y-88886703D02*
G01*
X235018100Y-88950853D01*
X235157481Y-89043985D01*
X235276015Y-89162519D01*
X235369147Y-89301900D01*
X235433297Y-89456772D01*
X235466000Y-89621184D01*
X235466000Y-89788816D01*
X235433297Y-89953228D01*
X235369147Y-90108100D01*
X235276015Y-90247481D01*
X235157481Y-90366015D01*
X235018100Y-90459147D01*
X234863228Y-90523297D01*
X234698816Y-90556000D01*
X234531184Y-90556000D01*
X234366772Y-90523297D01*
X234211900Y-90459147D01*
X234072519Y-90366015D01*
X233953985Y-90247481D01*
X233860853Y-90108100D01*
X233796703Y-89953228D01*
X233764000Y-89788816D01*
X233764000Y-89621184D01*
X233796703Y-89456772D01*
X233860853Y-89301900D01*
X233953985Y-89162519D01*
X234072519Y-89043985D01*
X234211900Y-88950853D01*
X234366772Y-88886703D01*
X234531184Y-88854000D01*
X234698816Y-88854000D01*
X234863228Y-88886703D01*
G37*
G36*
X83451000Y-90436000D02*
G01*
X81649000Y-90436000D01*
X81649000Y-88634000D01*
X83451000Y-88634000D01*
X83451000Y-90436000D01*
G37*
G36*
X232023228Y-87501703D02*
G01*
X232178100Y-87565853D01*
X232317481Y-87658985D01*
X232436015Y-87777519D01*
X232529147Y-87916900D01*
X232593297Y-88071772D01*
X232626000Y-88236184D01*
X232626000Y-88403816D01*
X232593297Y-88568228D01*
X232529147Y-88723100D01*
X232436015Y-88862481D01*
X232317481Y-88981015D01*
X232178100Y-89074147D01*
X232023228Y-89138297D01*
X231858816Y-89171000D01*
X231691184Y-89171000D01*
X231526772Y-89138297D01*
X231371900Y-89074147D01*
X231232519Y-88981015D01*
X231113985Y-88862481D01*
X231020853Y-88723100D01*
X230956703Y-88568228D01*
X230924000Y-88403816D01*
X230924000Y-88236184D01*
X230956703Y-88071772D01*
X231020853Y-87916900D01*
X231113985Y-87777519D01*
X231232519Y-87658985D01*
X231371900Y-87565853D01*
X231526772Y-87501703D01*
X231691184Y-87469000D01*
X231858816Y-87469000D01*
X232023228Y-87501703D01*
G37*
G36*
X234863228Y-86116703D02*
G01*
X235018100Y-86180853D01*
X235157481Y-86273985D01*
X235276015Y-86392519D01*
X235369147Y-86531900D01*
X235433297Y-86686772D01*
X235466000Y-86851184D01*
X235466000Y-87018816D01*
X235433297Y-87183228D01*
X235369147Y-87338100D01*
X235276015Y-87477481D01*
X235157481Y-87596015D01*
X235018100Y-87689147D01*
X234863228Y-87753297D01*
X234698816Y-87786000D01*
X234531184Y-87786000D01*
X234366772Y-87753297D01*
X234211900Y-87689147D01*
X234072519Y-87596015D01*
X233953985Y-87477481D01*
X233860853Y-87338100D01*
X233796703Y-87183228D01*
X233764000Y-87018816D01*
X233764000Y-86851184D01*
X233796703Y-86686772D01*
X233860853Y-86531900D01*
X233953985Y-86392519D01*
X234072519Y-86273985D01*
X234211900Y-86180853D01*
X234366772Y-86116703D01*
X234531184Y-86084000D01*
X234698816Y-86084000D01*
X234863228Y-86116703D01*
G37*
G36*
X232023228Y-84731703D02*
G01*
X232178100Y-84795853D01*
X232317481Y-84888985D01*
X232436015Y-85007519D01*
X232529147Y-85146900D01*
X232593297Y-85301772D01*
X232626000Y-85466184D01*
X232626000Y-85633816D01*
X232593297Y-85798228D01*
X232529147Y-85953100D01*
X232436015Y-86092481D01*
X232317481Y-86211015D01*
X232178100Y-86304147D01*
X232023228Y-86368297D01*
X231858816Y-86401000D01*
X231691184Y-86401000D01*
X231526772Y-86368297D01*
X231371900Y-86304147D01*
X231232519Y-86211015D01*
X231113985Y-86092481D01*
X231020853Y-85953100D01*
X230956703Y-85798228D01*
X230924000Y-85633816D01*
X230924000Y-85466184D01*
X230956703Y-85301772D01*
X231020853Y-85146900D01*
X231113985Y-85007519D01*
X231232519Y-84888985D01*
X231371900Y-84795853D01*
X231526772Y-84731703D01*
X231691184Y-84699000D01*
X231858816Y-84699000D01*
X232023228Y-84731703D01*
G37*
G36*
X234863228Y-83346703D02*
G01*
X235018100Y-83410853D01*
X235157481Y-83503985D01*
X235276015Y-83622519D01*
X235369147Y-83761900D01*
X235433297Y-83916772D01*
X235466000Y-84081184D01*
X235466000Y-84248816D01*
X235433297Y-84413228D01*
X235369147Y-84568100D01*
X235276015Y-84707481D01*
X235157481Y-84826015D01*
X235018100Y-84919147D01*
X234863228Y-84983297D01*
X234698816Y-85016000D01*
X234531184Y-85016000D01*
X234366772Y-84983297D01*
X234211900Y-84919147D01*
X234072519Y-84826015D01*
X233953985Y-84707481D01*
X233860853Y-84568100D01*
X233796703Y-84413228D01*
X233764000Y-84248816D01*
X233764000Y-84081184D01*
X233796703Y-83916772D01*
X233860853Y-83761900D01*
X233953985Y-83622519D01*
X234072519Y-83503985D01*
X234211900Y-83410853D01*
X234366772Y-83346703D01*
X234531184Y-83314000D01*
X234698816Y-83314000D01*
X234863228Y-83346703D01*
G37*
G36*
X232023228Y-81961703D02*
G01*
X232178100Y-82025853D01*
X232317481Y-82118985D01*
X232436015Y-82237519D01*
X232529147Y-82376900D01*
X232593297Y-82531772D01*
X232626000Y-82696184D01*
X232626000Y-82863816D01*
X232593297Y-83028228D01*
X232529147Y-83183100D01*
X232436015Y-83322481D01*
X232317481Y-83441015D01*
X232178100Y-83534147D01*
X232023228Y-83598297D01*
X231858816Y-83631000D01*
X231691184Y-83631000D01*
X231526772Y-83598297D01*
X231371900Y-83534147D01*
X231232519Y-83441015D01*
X231113985Y-83322481D01*
X231020853Y-83183100D01*
X230956703Y-83028228D01*
X230924000Y-82863816D01*
X230924000Y-82696184D01*
X230956703Y-82531772D01*
X231020853Y-82376900D01*
X231113985Y-82237519D01*
X231232519Y-82118985D01*
X231371900Y-82025853D01*
X231526772Y-81961703D01*
X231691184Y-81929000D01*
X231858816Y-81929000D01*
X232023228Y-81961703D01*
G37*
G36*
X234863228Y-80576703D02*
G01*
X235018100Y-80640853D01*
X235157481Y-80733985D01*
X235276015Y-80852519D01*
X235369147Y-80991900D01*
X235433297Y-81146772D01*
X235466000Y-81311184D01*
X235466000Y-81478816D01*
X235433297Y-81643228D01*
X235369147Y-81798100D01*
X235276015Y-81937481D01*
X235157481Y-82056015D01*
X235018100Y-82149147D01*
X234863228Y-82213297D01*
X234698816Y-82246000D01*
X234531184Y-82246000D01*
X234366772Y-82213297D01*
X234211900Y-82149147D01*
X234072519Y-82056015D01*
X233953985Y-81937481D01*
X233860853Y-81798100D01*
X233796703Y-81643228D01*
X233764000Y-81478816D01*
X233764000Y-81311184D01*
X233796703Y-81146772D01*
X233860853Y-80991900D01*
X233953985Y-80852519D01*
X234072519Y-80733985D01*
X234211900Y-80640853D01*
X234366772Y-80576703D01*
X234531184Y-80544000D01*
X234698816Y-80544000D01*
X234863228Y-80576703D01*
G37*
G36*
X232626000Y-80861000D02*
G01*
X230924000Y-80861000D01*
X230924000Y-79159000D01*
X232626000Y-79159000D01*
X232626000Y-80861000D01*
G37*
G36*
X232673254Y-71077818D02*
G01*
X233046511Y-71232426D01*
X233046513Y-71232427D01*
X233382436Y-71456884D01*
X233668116Y-71742564D01*
X233892574Y-72078489D01*
X234047182Y-72451746D01*
X234126000Y-72847993D01*
X234126000Y-73252007D01*
X234047182Y-73648254D01*
X233892574Y-74021511D01*
X233892573Y-74021513D01*
X233668116Y-74357436D01*
X233382436Y-74643116D01*
X233046513Y-74867573D01*
X233046512Y-74867574D01*
X233046511Y-74867574D01*
X232673254Y-75022182D01*
X232277007Y-75101000D01*
X231872993Y-75101000D01*
X231476746Y-75022182D01*
X231103489Y-74867574D01*
X231103488Y-74867574D01*
X231103487Y-74867573D01*
X230767564Y-74643116D01*
X230481884Y-74357436D01*
X230257427Y-74021513D01*
X230257426Y-74021511D01*
X230102818Y-73648254D01*
X230024000Y-73252007D01*
X230024000Y-72847993D01*
X230102818Y-72451746D01*
X230257426Y-72078489D01*
X230481884Y-71742564D01*
X230767564Y-71456884D01*
X231103487Y-71232427D01*
X231103489Y-71232426D01*
X231476746Y-71077818D01*
X231872993Y-70999000D01*
X232277007Y-70999000D01*
X232673254Y-71077818D01*
G37*
G36*
X149338512Y-63238927D02*
G01*
X149487812Y-63268624D01*
X149651784Y-63336544D01*
X149799354Y-63435147D01*
X149924853Y-63560646D01*
X150023456Y-63708216D01*
X150091376Y-63872188D01*
X150126000Y-64046259D01*
X150126000Y-64223741D01*
X150091376Y-64397812D01*
X150023456Y-64561784D01*
X149924853Y-64709354D01*
X149799354Y-64834853D01*
X149651784Y-64933456D01*
X149487812Y-65001376D01*
X149338512Y-65031073D01*
X149313742Y-65036000D01*
X149136258Y-65036000D01*
X149111488Y-65031073D01*
X148962188Y-65001376D01*
X148798216Y-64933456D01*
X148650646Y-64834853D01*
X148525147Y-64709354D01*
X148426544Y-64561784D01*
X148358624Y-64397812D01*
X148324000Y-64223741D01*
X148324000Y-64046259D01*
X148358624Y-63872188D01*
X148426544Y-63708216D01*
X148525147Y-63560646D01*
X148650646Y-63435147D01*
X148798216Y-63336544D01*
X148962188Y-63268624D01*
X149111488Y-63238927D01*
X149136258Y-63234000D01*
X149313742Y-63234000D01*
X149338512Y-63238927D01*
G37*
G36*
X172198512Y-63238927D02*
G01*
X172347812Y-63268624D01*
X172511784Y-63336544D01*
X172659354Y-63435147D01*
X172784853Y-63560646D01*
X172883456Y-63708216D01*
X172951376Y-63872188D01*
X172986000Y-64046259D01*
X172986000Y-64223741D01*
X172951376Y-64397812D01*
X172883456Y-64561784D01*
X172784853Y-64709354D01*
X172659354Y-64834853D01*
X172511784Y-64933456D01*
X172347812Y-65001376D01*
X172198512Y-65031073D01*
X172173742Y-65036000D01*
X171996258Y-65036000D01*
X171971488Y-65031073D01*
X171822188Y-65001376D01*
X171658216Y-64933456D01*
X171510646Y-64834853D01*
X171385147Y-64709354D01*
X171286544Y-64561784D01*
X171218624Y-64397812D01*
X171184000Y-64223741D01*
X171184000Y-64046259D01*
X171218624Y-63872188D01*
X171286544Y-63708216D01*
X171385147Y-63560646D01*
X171510646Y-63435147D01*
X171658216Y-63336544D01*
X171822188Y-63268624D01*
X171971488Y-63238927D01*
X171996258Y-63234000D01*
X172173742Y-63234000D01*
X172198512Y-63238927D01*
G37*
G36*
X149338512Y-60698927D02*
G01*
X149487812Y-60728624D01*
X149651784Y-60796544D01*
X149799354Y-60895147D01*
X149924853Y-61020646D01*
X150023456Y-61168216D01*
X150091376Y-61332188D01*
X150126000Y-61506259D01*
X150126000Y-61683741D01*
X150091376Y-61857812D01*
X150023456Y-62021784D01*
X149924853Y-62169354D01*
X149799354Y-62294853D01*
X149651784Y-62393456D01*
X149487812Y-62461376D01*
X149338512Y-62491073D01*
X149313742Y-62496000D01*
X149136258Y-62496000D01*
X149111488Y-62491073D01*
X148962188Y-62461376D01*
X148798216Y-62393456D01*
X148650646Y-62294853D01*
X148525147Y-62169354D01*
X148426544Y-62021784D01*
X148358624Y-61857812D01*
X148324000Y-61683741D01*
X148324000Y-61506259D01*
X148358624Y-61332188D01*
X148426544Y-61168216D01*
X148525147Y-61020646D01*
X148650646Y-60895147D01*
X148798216Y-60796544D01*
X148962188Y-60728624D01*
X149111488Y-60698927D01*
X149136258Y-60694000D01*
X149313742Y-60694000D01*
X149338512Y-60698927D01*
G37*
G36*
X172198512Y-60698927D02*
G01*
X172347812Y-60728624D01*
X172511784Y-60796544D01*
X172659354Y-60895147D01*
X172784853Y-61020646D01*
X172883456Y-61168216D01*
X172951376Y-61332188D01*
X172986000Y-61506259D01*
X172986000Y-61683741D01*
X172951376Y-61857812D01*
X172883456Y-62021784D01*
X172784853Y-62169354D01*
X172659354Y-62294853D01*
X172511784Y-62393456D01*
X172347812Y-62461376D01*
X172198512Y-62491073D01*
X172173742Y-62496000D01*
X171996258Y-62496000D01*
X171971488Y-62491073D01*
X171822188Y-62461376D01*
X171658216Y-62393456D01*
X171510646Y-62294853D01*
X171385147Y-62169354D01*
X171286544Y-62021784D01*
X171218624Y-61857812D01*
X171184000Y-61683741D01*
X171184000Y-61506259D01*
X171218624Y-61332188D01*
X171286544Y-61168216D01*
X171385147Y-61020646D01*
X171510646Y-60895147D01*
X171658216Y-60796544D01*
X171822188Y-60728624D01*
X171971488Y-60698927D01*
X171996258Y-60694000D01*
X172173742Y-60694000D01*
X172198512Y-60698927D01*
G37*
G36*
X172198512Y-58158927D02*
G01*
X172347812Y-58188624D01*
X172511784Y-58256544D01*
X172659354Y-58355147D01*
X172784853Y-58480646D01*
X172883456Y-58628216D01*
X172951376Y-58792188D01*
X172986000Y-58966259D01*
X172986000Y-59143741D01*
X172951376Y-59317812D01*
X172883456Y-59481784D01*
X172784853Y-59629354D01*
X172659354Y-59754853D01*
X172511784Y-59853456D01*
X172347812Y-59921376D01*
X172198512Y-59951073D01*
X172173742Y-59956000D01*
X171996258Y-59956000D01*
X171971488Y-59951073D01*
X171822188Y-59921376D01*
X171658216Y-59853456D01*
X171510646Y-59754853D01*
X171385147Y-59629354D01*
X171286544Y-59481784D01*
X171218624Y-59317812D01*
X171184000Y-59143741D01*
X171184000Y-58966259D01*
X171218624Y-58792188D01*
X171286544Y-58628216D01*
X171385147Y-58480646D01*
X171510646Y-58355147D01*
X171658216Y-58256544D01*
X171822188Y-58188624D01*
X171971488Y-58158927D01*
X171996258Y-58154000D01*
X172173742Y-58154000D01*
X172198512Y-58158927D01*
G37*
G36*
X149338512Y-58158927D02*
G01*
X149487812Y-58188624D01*
X149651784Y-58256544D01*
X149799354Y-58355147D01*
X149924853Y-58480646D01*
X150023456Y-58628216D01*
X150091376Y-58792188D01*
X150126000Y-58966259D01*
X150126000Y-59143741D01*
X150091376Y-59317812D01*
X150023456Y-59481784D01*
X149924853Y-59629354D01*
X149799354Y-59754853D01*
X149651784Y-59853456D01*
X149487812Y-59921376D01*
X149338512Y-59951073D01*
X149313742Y-59956000D01*
X149136258Y-59956000D01*
X149111488Y-59951073D01*
X148962188Y-59921376D01*
X148798216Y-59853456D01*
X148650646Y-59754853D01*
X148525147Y-59629354D01*
X148426544Y-59481784D01*
X148358624Y-59317812D01*
X148324000Y-59143741D01*
X148324000Y-58966259D01*
X148358624Y-58792188D01*
X148426544Y-58628216D01*
X148525147Y-58480646D01*
X148650646Y-58355147D01*
X148798216Y-58256544D01*
X148962188Y-58188624D01*
X149111488Y-58158927D01*
X149136258Y-58154000D01*
X149313742Y-58154000D01*
X149338512Y-58158927D01*
G37*
G36*
X172198512Y-55618927D02*
G01*
X172347812Y-55648624D01*
X172511784Y-55716544D01*
X172659354Y-55815147D01*
X172784853Y-55940646D01*
X172883456Y-56088216D01*
X172951376Y-56252188D01*
X172986000Y-56426259D01*
X172986000Y-56603741D01*
X172951376Y-56777812D01*
X172883456Y-56941784D01*
X172784853Y-57089354D01*
X172659354Y-57214853D01*
X172511784Y-57313456D01*
X172347812Y-57381376D01*
X172198512Y-57411073D01*
X172173742Y-57416000D01*
X171996258Y-57416000D01*
X171971488Y-57411073D01*
X171822188Y-57381376D01*
X171658216Y-57313456D01*
X171510646Y-57214853D01*
X171385147Y-57089354D01*
X171286544Y-56941784D01*
X171218624Y-56777812D01*
X171184000Y-56603741D01*
X171184000Y-56426259D01*
X171218624Y-56252188D01*
X171286544Y-56088216D01*
X171385147Y-55940646D01*
X171510646Y-55815147D01*
X171658216Y-55716544D01*
X171822188Y-55648624D01*
X171971488Y-55618927D01*
X171996258Y-55614000D01*
X172173742Y-55614000D01*
X172198512Y-55618927D01*
G37*
G36*
X149338512Y-55618927D02*
G01*
X149487812Y-55648624D01*
X149651784Y-55716544D01*
X149799354Y-55815147D01*
X149924853Y-55940646D01*
X150023456Y-56088216D01*
X150091376Y-56252188D01*
X150126000Y-56426259D01*
X150126000Y-56603741D01*
X150091376Y-56777812D01*
X150023456Y-56941784D01*
X149924853Y-57089354D01*
X149799354Y-57214853D01*
X149651784Y-57313456D01*
X149487812Y-57381376D01*
X149338512Y-57411073D01*
X149313742Y-57416000D01*
X149136258Y-57416000D01*
X149111488Y-57411073D01*
X148962188Y-57381376D01*
X148798216Y-57313456D01*
X148650646Y-57214853D01*
X148525147Y-57089354D01*
X148426544Y-56941784D01*
X148358624Y-56777812D01*
X148324000Y-56603741D01*
X148324000Y-56426259D01*
X148358624Y-56252188D01*
X148426544Y-56088216D01*
X148525147Y-55940646D01*
X148650646Y-55815147D01*
X148798216Y-55716544D01*
X148962188Y-55648624D01*
X149111488Y-55618927D01*
X149136258Y-55614000D01*
X149313742Y-55614000D01*
X149338512Y-55618927D01*
G37*
G36*
X172198512Y-53078927D02*
G01*
X172347812Y-53108624D01*
X172511784Y-53176544D01*
X172659354Y-53275147D01*
X172784853Y-53400646D01*
X172883456Y-53548216D01*
X172951376Y-53712188D01*
X172986000Y-53886259D01*
X172986000Y-54063741D01*
X172951376Y-54237812D01*
X172883456Y-54401784D01*
X172784853Y-54549354D01*
X172659354Y-54674853D01*
X172511784Y-54773456D01*
X172347812Y-54841376D01*
X172198512Y-54871073D01*
X172173742Y-54876000D01*
X171996258Y-54876000D01*
X171971488Y-54871073D01*
X171822188Y-54841376D01*
X171658216Y-54773456D01*
X171510646Y-54674853D01*
X171385147Y-54549354D01*
X171286544Y-54401784D01*
X171218624Y-54237812D01*
X171184000Y-54063741D01*
X171184000Y-53886259D01*
X171218624Y-53712188D01*
X171286544Y-53548216D01*
X171385147Y-53400646D01*
X171510646Y-53275147D01*
X171658216Y-53176544D01*
X171822188Y-53108624D01*
X171971488Y-53078927D01*
X171996258Y-53074000D01*
X172173742Y-53074000D01*
X172198512Y-53078927D01*
G37*
G36*
X149338512Y-53078927D02*
G01*
X149487812Y-53108624D01*
X149651784Y-53176544D01*
X149799354Y-53275147D01*
X149924853Y-53400646D01*
X150023456Y-53548216D01*
X150091376Y-53712188D01*
X150126000Y-53886259D01*
X150126000Y-54063741D01*
X150091376Y-54237812D01*
X150023456Y-54401784D01*
X149924853Y-54549354D01*
X149799354Y-54674853D01*
X149651784Y-54773456D01*
X149487812Y-54841376D01*
X149338512Y-54871073D01*
X149313742Y-54876000D01*
X149136258Y-54876000D01*
X149111488Y-54871073D01*
X148962188Y-54841376D01*
X148798216Y-54773456D01*
X148650646Y-54674853D01*
X148525147Y-54549354D01*
X148426544Y-54401784D01*
X148358624Y-54237812D01*
X148324000Y-54063741D01*
X148324000Y-53886259D01*
X148358624Y-53712188D01*
X148426544Y-53548216D01*
X148525147Y-53400646D01*
X148650646Y-53275147D01*
X148798216Y-53176544D01*
X148962188Y-53108624D01*
X149111488Y-53078927D01*
X149136258Y-53074000D01*
X149313742Y-53074000D01*
X149338512Y-53078927D01*
G37*
G36*
X149338512Y-50538927D02*
G01*
X149487812Y-50568624D01*
X149651784Y-50636544D01*
X149799354Y-50735147D01*
X149924853Y-50860646D01*
X150023456Y-51008216D01*
X150091376Y-51172188D01*
X150126000Y-51346259D01*
X150126000Y-51523741D01*
X150091376Y-51697812D01*
X150023456Y-51861784D01*
X149924853Y-52009354D01*
X149799354Y-52134853D01*
X149651784Y-52233456D01*
X149487812Y-52301376D01*
X149338512Y-52331073D01*
X149313742Y-52336000D01*
X149136258Y-52336000D01*
X149111488Y-52331073D01*
X148962188Y-52301376D01*
X148798216Y-52233456D01*
X148650646Y-52134853D01*
X148525147Y-52009354D01*
X148426544Y-51861784D01*
X148358624Y-51697812D01*
X148324000Y-51523741D01*
X148324000Y-51346259D01*
X148358624Y-51172188D01*
X148426544Y-51008216D01*
X148525147Y-50860646D01*
X148650646Y-50735147D01*
X148798216Y-50636544D01*
X148962188Y-50568624D01*
X149111488Y-50538927D01*
X149136258Y-50534000D01*
X149313742Y-50534000D01*
X149338512Y-50538927D01*
G37*
G36*
X172198512Y-50538927D02*
G01*
X172347812Y-50568624D01*
X172511784Y-50636544D01*
X172659354Y-50735147D01*
X172784853Y-50860646D01*
X172883456Y-51008216D01*
X172951376Y-51172188D01*
X172986000Y-51346259D01*
X172986000Y-51523741D01*
X172951376Y-51697812D01*
X172883456Y-51861784D01*
X172784853Y-52009354D01*
X172659354Y-52134853D01*
X172511784Y-52233456D01*
X172347812Y-52301376D01*
X172198512Y-52331073D01*
X172173742Y-52336000D01*
X171996258Y-52336000D01*
X171971488Y-52331073D01*
X171822188Y-52301376D01*
X171658216Y-52233456D01*
X171510646Y-52134853D01*
X171385147Y-52009354D01*
X171286544Y-51861784D01*
X171218624Y-51697812D01*
X171184000Y-51523741D01*
X171184000Y-51346259D01*
X171218624Y-51172188D01*
X171286544Y-51008216D01*
X171385147Y-50860646D01*
X171510646Y-50735147D01*
X171658216Y-50636544D01*
X171822188Y-50568624D01*
X171971488Y-50538927D01*
X171996258Y-50534000D01*
X172173742Y-50534000D01*
X172198512Y-50538927D01*
G37*
G36*
X172198512Y-47998927D02*
G01*
X172347812Y-48028624D01*
X172511784Y-48096544D01*
X172659354Y-48195147D01*
X172784853Y-48320646D01*
X172883456Y-48468216D01*
X172951376Y-48632188D01*
X172986000Y-48806259D01*
X172986000Y-48983741D01*
X172951376Y-49157812D01*
X172883456Y-49321784D01*
X172784853Y-49469354D01*
X172659354Y-49594853D01*
X172511784Y-49693456D01*
X172347812Y-49761376D01*
X172198512Y-49791073D01*
X172173742Y-49796000D01*
X171996258Y-49796000D01*
X171971488Y-49791073D01*
X171822188Y-49761376D01*
X171658216Y-49693456D01*
X171510646Y-49594853D01*
X171385147Y-49469354D01*
X171286544Y-49321784D01*
X171218624Y-49157812D01*
X171184000Y-48983741D01*
X171184000Y-48806259D01*
X171218624Y-48632188D01*
X171286544Y-48468216D01*
X171385147Y-48320646D01*
X171510646Y-48195147D01*
X171658216Y-48096544D01*
X171822188Y-48028624D01*
X171971488Y-47998927D01*
X171996258Y-47994000D01*
X172173742Y-47994000D01*
X172198512Y-47998927D01*
G37*
G36*
X149338512Y-47998927D02*
G01*
X149487812Y-48028624D01*
X149651784Y-48096544D01*
X149799354Y-48195147D01*
X149924853Y-48320646D01*
X150023456Y-48468216D01*
X150091376Y-48632188D01*
X150126000Y-48806259D01*
X150126000Y-48983741D01*
X150091376Y-49157812D01*
X150023456Y-49321784D01*
X149924853Y-49469354D01*
X149799354Y-49594853D01*
X149651784Y-49693456D01*
X149487812Y-49761376D01*
X149338512Y-49791073D01*
X149313742Y-49796000D01*
X149136258Y-49796000D01*
X149111488Y-49791073D01*
X148962188Y-49761376D01*
X148798216Y-49693456D01*
X148650646Y-49594853D01*
X148525147Y-49469354D01*
X148426544Y-49321784D01*
X148358624Y-49157812D01*
X148324000Y-48983741D01*
X148324000Y-48806259D01*
X148358624Y-48632188D01*
X148426544Y-48468216D01*
X148525147Y-48320646D01*
X148650646Y-48195147D01*
X148798216Y-48096544D01*
X148962188Y-48028624D01*
X149111488Y-47998927D01*
X149136258Y-47994000D01*
X149313742Y-47994000D01*
X149338512Y-47998927D01*
G37*
G36*
X86035787Y-41585462D02*
G01*
X86035790Y-41585463D01*
X86035789Y-41585463D01*
X86682029Y-41853144D01*
X87263631Y-42241758D01*
X87758242Y-42736369D01*
X88146856Y-43317971D01*
X88146856Y-43317972D01*
X88414538Y-43964213D01*
X88551000Y-44650256D01*
X88551000Y-45349744D01*
X88414538Y-46035787D01*
X88414537Y-46035789D01*
X88146856Y-46682029D01*
X87758242Y-47263631D01*
X87263631Y-47758242D01*
X86682029Y-48146856D01*
X86262462Y-48320646D01*
X86035787Y-48414538D01*
X85349744Y-48551000D01*
X84650256Y-48551000D01*
X83964213Y-48414538D01*
X83737538Y-48320646D01*
X83317971Y-48146856D01*
X82736369Y-47758242D01*
X82241758Y-47263631D01*
X81853144Y-46682029D01*
X81585463Y-46035789D01*
X81585462Y-46035787D01*
X81449000Y-45349744D01*
X81449000Y-44650256D01*
X81585462Y-43964213D01*
X81853144Y-43317972D01*
X81853144Y-43317971D01*
X82241758Y-42736369D01*
X82736369Y-42241758D01*
X83317971Y-41853144D01*
X83964211Y-41585463D01*
X83964210Y-41585463D01*
X83964213Y-41585462D01*
X84650256Y-41449000D01*
X85349744Y-41449000D01*
X86035787Y-41585462D01*
G37*
G36*
X236035787Y-41585462D02*
G01*
X236035790Y-41585463D01*
X236035789Y-41585463D01*
X236682029Y-41853144D01*
X237263631Y-42241758D01*
X237758242Y-42736369D01*
X238146856Y-43317971D01*
X238146856Y-43317972D01*
X238414538Y-43964213D01*
X238551000Y-44650256D01*
X238551000Y-45349744D01*
X238414538Y-46035787D01*
X238414537Y-46035789D01*
X238146856Y-46682029D01*
X237758242Y-47263631D01*
X237263631Y-47758242D01*
X236682029Y-48146856D01*
X236262462Y-48320646D01*
X236035787Y-48414538D01*
X235349744Y-48551000D01*
X234650256Y-48551000D01*
X233964213Y-48414538D01*
X233737538Y-48320646D01*
X233317971Y-48146856D01*
X232736369Y-47758242D01*
X232241758Y-47263631D01*
X231853144Y-46682029D01*
X231585463Y-46035789D01*
X231585462Y-46035787D01*
X231449000Y-45349744D01*
X231449000Y-44650256D01*
X231585462Y-43964213D01*
X231853144Y-43317972D01*
X231853144Y-43317971D01*
X232241758Y-42736369D01*
X232736369Y-42241758D01*
X233317971Y-41853144D01*
X233964211Y-41585463D01*
X233964210Y-41585463D01*
X233964213Y-41585462D01*
X234650256Y-41449000D01*
X235349744Y-41449000D01*
X236035787Y-41585462D01*
G37*
G36*
X110865256Y-44111298D02*
G01*
X110971579Y-44132447D01*
X111272042Y-44256903D01*
X111542451Y-44437585D01*
X111772415Y-44667549D01*
X111772416Y-44667551D01*
X111953098Y-44937960D01*
X112077553Y-45238422D01*
X112099697Y-45349744D01*
X112141000Y-45557391D01*
X112141000Y-45882609D01*
X112077553Y-46201579D01*
X111953097Y-46502042D01*
X111772415Y-46772451D01*
X111542451Y-47002415D01*
X111272042Y-47183097D01*
X110971579Y-47307553D01*
X110865256Y-47328702D01*
X110652611Y-47371000D01*
X110327389Y-47371000D01*
X110114744Y-47328702D01*
X110008421Y-47307553D01*
X109707958Y-47183097D01*
X109437549Y-47002415D01*
X109207585Y-46772451D01*
X109026903Y-46502042D01*
X108902447Y-46201579D01*
X108839000Y-45882609D01*
X108839000Y-45557391D01*
X108880304Y-45349744D01*
X108902447Y-45238422D01*
X109026902Y-44937960D01*
X109207584Y-44667551D01*
X109207585Y-44667549D01*
X109437549Y-44437585D01*
X109707958Y-44256903D01*
X110008421Y-44132447D01*
X110114744Y-44111298D01*
X110327389Y-44069000D01*
X110652611Y-44069000D01*
X110865256Y-44111298D01*
G37*
G36*
X180715256Y-44111298D02*
G01*
X180821579Y-44132447D01*
X181122042Y-44256903D01*
X181392451Y-44437585D01*
X181622415Y-44667549D01*
X181622416Y-44667551D01*
X181803098Y-44937960D01*
X181927553Y-45238422D01*
X181949697Y-45349744D01*
X181991000Y-45557391D01*
X181991000Y-45882609D01*
X181927553Y-46201579D01*
X181803097Y-46502042D01*
X181622415Y-46772451D01*
X181392451Y-47002415D01*
X181122042Y-47183097D01*
X180821579Y-47307553D01*
X180715256Y-47328702D01*
X180502611Y-47371000D01*
X180177389Y-47371000D01*
X179964744Y-47328702D01*
X179858421Y-47307553D01*
X179557958Y-47183097D01*
X179287549Y-47002415D01*
X179057585Y-46772451D01*
X178876903Y-46502042D01*
X178752447Y-46201579D01*
X178689000Y-45882609D01*
X178689000Y-45557391D01*
X178730304Y-45349744D01*
X178752447Y-45238422D01*
X178876902Y-44937960D01*
X179057584Y-44667551D01*
X179057585Y-44667549D01*
X179287549Y-44437585D01*
X179557958Y-44256903D01*
X179858421Y-44132447D01*
X179964744Y-44111298D01*
X180177389Y-44069000D01*
X180502611Y-44069000D01*
X180715256Y-44111298D01*
G37*
G36*
X185795256Y-44111298D02*
G01*
X185901579Y-44132447D01*
X186202042Y-44256903D01*
X186472451Y-44437585D01*
X186702415Y-44667549D01*
X186702416Y-44667551D01*
X186883098Y-44937960D01*
X187007553Y-45238422D01*
X187029697Y-45349744D01*
X187071000Y-45557391D01*
X187071000Y-45882609D01*
X187007553Y-46201579D01*
X186883097Y-46502042D01*
X186702415Y-46772451D01*
X186472451Y-47002415D01*
X186202042Y-47183097D01*
X185901579Y-47307553D01*
X185795256Y-47328702D01*
X185582611Y-47371000D01*
X185257389Y-47371000D01*
X185044744Y-47328702D01*
X184938421Y-47307553D01*
X184637958Y-47183097D01*
X184367549Y-47002415D01*
X184137585Y-46772451D01*
X183956903Y-46502042D01*
X183832447Y-46201579D01*
X183769000Y-45882609D01*
X183769000Y-45557391D01*
X183810304Y-45349744D01*
X183832447Y-45238422D01*
X183956902Y-44937960D01*
X184137584Y-44667551D01*
X184137585Y-44667549D01*
X184367549Y-44437585D01*
X184637958Y-44256903D01*
X184938421Y-44132447D01*
X185044744Y-44111298D01*
X185257389Y-44069000D01*
X185582611Y-44069000D01*
X185795256Y-44111298D01*
G37*
G36*
X190875256Y-44111298D02*
G01*
X190981579Y-44132447D01*
X191282042Y-44256903D01*
X191552451Y-44437585D01*
X191782415Y-44667549D01*
X191782416Y-44667551D01*
X191963098Y-44937960D01*
X192087553Y-45238422D01*
X192109697Y-45349744D01*
X192151000Y-45557391D01*
X192151000Y-45882609D01*
X192087553Y-46201579D01*
X191963097Y-46502042D01*
X191782415Y-46772451D01*
X191552451Y-47002415D01*
X191282042Y-47183097D01*
X190981579Y-47307553D01*
X190875256Y-47328702D01*
X190662611Y-47371000D01*
X190337389Y-47371000D01*
X190124744Y-47328702D01*
X190018421Y-47307553D01*
X189717958Y-47183097D01*
X189447549Y-47002415D01*
X189217585Y-46772451D01*
X189036903Y-46502042D01*
X188912447Y-46201579D01*
X188849000Y-45882609D01*
X188849000Y-45557391D01*
X188890304Y-45349744D01*
X188912447Y-45238422D01*
X189036902Y-44937960D01*
X189217584Y-44667551D01*
X189217585Y-44667549D01*
X189447549Y-44437585D01*
X189717958Y-44256903D01*
X190018421Y-44132447D01*
X190124744Y-44111298D01*
X190337389Y-44069000D01*
X190662611Y-44069000D01*
X190875256Y-44111298D01*
G37*
G36*
X195955256Y-44111298D02*
G01*
X196061579Y-44132447D01*
X196362042Y-44256903D01*
X196632451Y-44437585D01*
X196862415Y-44667549D01*
X196862416Y-44667551D01*
X197043098Y-44937960D01*
X197167553Y-45238422D01*
X197189697Y-45349744D01*
X197231000Y-45557391D01*
X197231000Y-45882609D01*
X197167553Y-46201579D01*
X197043097Y-46502042D01*
X196862415Y-46772451D01*
X196632451Y-47002415D01*
X196362042Y-47183097D01*
X196061579Y-47307553D01*
X195955256Y-47328702D01*
X195742611Y-47371000D01*
X195417389Y-47371000D01*
X195204744Y-47328702D01*
X195098421Y-47307553D01*
X194797958Y-47183097D01*
X194527549Y-47002415D01*
X194297585Y-46772451D01*
X194116903Y-46502042D01*
X193992447Y-46201579D01*
X193929000Y-45882609D01*
X193929000Y-45557391D01*
X193970304Y-45349744D01*
X193992447Y-45238422D01*
X194116902Y-44937960D01*
X194297584Y-44667551D01*
X194297585Y-44667549D01*
X194527549Y-44437585D01*
X194797958Y-44256903D01*
X195098421Y-44132447D01*
X195204744Y-44111298D01*
X195417389Y-44069000D01*
X195742611Y-44069000D01*
X195955256Y-44111298D01*
G37*
G36*
X216275256Y-44111298D02*
G01*
X216381579Y-44132447D01*
X216682042Y-44256903D01*
X216952451Y-44437585D01*
X217182415Y-44667549D01*
X217182416Y-44667551D01*
X217363098Y-44937960D01*
X217487553Y-45238422D01*
X217509697Y-45349744D01*
X217551000Y-45557391D01*
X217551000Y-45882609D01*
X217487553Y-46201579D01*
X217363097Y-46502042D01*
X217182415Y-46772451D01*
X216952451Y-47002415D01*
X216682042Y-47183097D01*
X216381579Y-47307553D01*
X216275256Y-47328702D01*
X216062611Y-47371000D01*
X215737389Y-47371000D01*
X215524744Y-47328702D01*
X215418421Y-47307553D01*
X215117958Y-47183097D01*
X214847549Y-47002415D01*
X214617585Y-46772451D01*
X214436903Y-46502042D01*
X214312447Y-46201579D01*
X214249000Y-45882609D01*
X214249000Y-45557391D01*
X214290304Y-45349744D01*
X214312447Y-45238422D01*
X214436902Y-44937960D01*
X214617584Y-44667551D01*
X214617585Y-44667549D01*
X214847549Y-44437585D01*
X215117958Y-44256903D01*
X215418421Y-44132447D01*
X215524744Y-44111298D01*
X215737389Y-44069000D01*
X216062611Y-44069000D01*
X216275256Y-44111298D01*
G37*
G36*
X221355256Y-44111298D02*
G01*
X221461579Y-44132447D01*
X221762042Y-44256903D01*
X222032451Y-44437585D01*
X222262415Y-44667549D01*
X222262416Y-44667551D01*
X222443098Y-44937960D01*
X222567553Y-45238422D01*
X222589697Y-45349744D01*
X222631000Y-45557391D01*
X222631000Y-45882609D01*
X222567553Y-46201579D01*
X222443097Y-46502042D01*
X222262415Y-46772451D01*
X222032451Y-47002415D01*
X221762042Y-47183097D01*
X221461579Y-47307553D01*
X221355256Y-47328702D01*
X221142611Y-47371000D01*
X220817389Y-47371000D01*
X220604744Y-47328702D01*
X220498421Y-47307553D01*
X220197958Y-47183097D01*
X219927549Y-47002415D01*
X219697585Y-46772451D01*
X219516903Y-46502042D01*
X219392447Y-46201579D01*
X219329000Y-45882609D01*
X219329000Y-45557391D01*
X219370304Y-45349744D01*
X219392447Y-45238422D01*
X219516902Y-44937960D01*
X219697584Y-44667551D01*
X219697585Y-44667549D01*
X219927549Y-44437585D01*
X220197958Y-44256903D01*
X220498421Y-44132447D01*
X220604744Y-44111298D01*
X220817389Y-44069000D01*
X221142611Y-44069000D01*
X221355256Y-44111298D01*
G37*
G36*
X226435256Y-44111298D02*
G01*
X226541579Y-44132447D01*
X226842042Y-44256903D01*
X227112451Y-44437585D01*
X227342415Y-44667549D01*
X227342416Y-44667551D01*
X227523098Y-44937960D01*
X227647553Y-45238422D01*
X227669697Y-45349744D01*
X227711000Y-45557391D01*
X227711000Y-45882609D01*
X227647553Y-46201579D01*
X227523097Y-46502042D01*
X227342415Y-46772451D01*
X227112451Y-47002415D01*
X226842042Y-47183097D01*
X226541579Y-47307553D01*
X226435256Y-47328702D01*
X226222611Y-47371000D01*
X225897389Y-47371000D01*
X225684744Y-47328702D01*
X225578421Y-47307553D01*
X225277958Y-47183097D01*
X225007549Y-47002415D01*
X224777585Y-46772451D01*
X224596903Y-46502042D01*
X224472447Y-46201579D01*
X224409000Y-45882609D01*
X224409000Y-45557391D01*
X224450304Y-45349744D01*
X224472447Y-45238422D01*
X224596902Y-44937960D01*
X224777584Y-44667551D01*
X224777585Y-44667549D01*
X225007549Y-44437585D01*
X225277958Y-44256903D01*
X225578421Y-44132447D01*
X225684744Y-44111298D01*
X225897389Y-44069000D01*
X226222611Y-44069000D01*
X226435256Y-44111298D01*
G37*
G36*
X141345256Y-44111298D02*
G01*
X141451579Y-44132447D01*
X141752042Y-44256903D01*
X142022451Y-44437585D01*
X142252415Y-44667549D01*
X142252416Y-44667551D01*
X142433098Y-44937960D01*
X142557553Y-45238422D01*
X142579697Y-45349744D01*
X142621000Y-45557391D01*
X142621000Y-45882609D01*
X142557553Y-46201579D01*
X142433097Y-46502042D01*
X142252415Y-46772451D01*
X142022451Y-47002415D01*
X141752042Y-47183097D01*
X141451579Y-47307553D01*
X141345256Y-47328702D01*
X141132611Y-47371000D01*
X140807389Y-47371000D01*
X140594744Y-47328702D01*
X140488421Y-47307553D01*
X140187958Y-47183097D01*
X139917549Y-47002415D01*
X139687585Y-46772451D01*
X139506903Y-46502042D01*
X139382447Y-46201579D01*
X139319000Y-45882609D01*
X139319000Y-45557391D01*
X139360304Y-45349744D01*
X139382447Y-45238422D01*
X139506902Y-44937960D01*
X139687584Y-44667551D01*
X139687585Y-44667549D01*
X139917549Y-44437585D01*
X140187958Y-44256903D01*
X140488421Y-44132447D01*
X140594744Y-44111298D01*
X140807389Y-44069000D01*
X141132611Y-44069000D01*
X141345256Y-44111298D01*
G37*
G36*
X95625256Y-44111298D02*
G01*
X95731579Y-44132447D01*
X96032042Y-44256903D01*
X96302451Y-44437585D01*
X96532415Y-44667549D01*
X96532416Y-44667551D01*
X96713098Y-44937960D01*
X96837553Y-45238422D01*
X96859697Y-45349744D01*
X96901000Y-45557391D01*
X96901000Y-45882609D01*
X96837553Y-46201579D01*
X96713097Y-46502042D01*
X96532415Y-46772451D01*
X96302451Y-47002415D01*
X96032042Y-47183097D01*
X95731579Y-47307553D01*
X95625256Y-47328702D01*
X95412611Y-47371000D01*
X95087389Y-47371000D01*
X94874744Y-47328702D01*
X94768421Y-47307553D01*
X94467958Y-47183097D01*
X94197549Y-47002415D01*
X93967585Y-46772451D01*
X93786903Y-46502042D01*
X93662447Y-46201579D01*
X93599000Y-45882609D01*
X93599000Y-45557391D01*
X93640304Y-45349744D01*
X93662447Y-45238422D01*
X93786902Y-44937960D01*
X93967584Y-44667551D01*
X93967585Y-44667549D01*
X94197549Y-44437585D01*
X94467958Y-44256903D01*
X94768421Y-44132447D01*
X94874744Y-44111298D01*
X95087389Y-44069000D01*
X95412611Y-44069000D01*
X95625256Y-44111298D01*
G37*
G36*
X131185256Y-44111298D02*
G01*
X131291579Y-44132447D01*
X131592042Y-44256903D01*
X131862451Y-44437585D01*
X132092415Y-44667549D01*
X132092416Y-44667551D01*
X132273098Y-44937960D01*
X132397553Y-45238422D01*
X132419697Y-45349744D01*
X132461000Y-45557391D01*
X132461000Y-45882609D01*
X132397553Y-46201579D01*
X132273097Y-46502042D01*
X132092415Y-46772451D01*
X131862451Y-47002415D01*
X131592042Y-47183097D01*
X131291579Y-47307553D01*
X131185256Y-47328702D01*
X130972611Y-47371000D01*
X130647389Y-47371000D01*
X130434744Y-47328702D01*
X130328421Y-47307553D01*
X130027958Y-47183097D01*
X129757549Y-47002415D01*
X129527585Y-46772451D01*
X129346903Y-46502042D01*
X129222447Y-46201579D01*
X129159000Y-45882609D01*
X129159000Y-45557391D01*
X129200304Y-45349744D01*
X129222447Y-45238422D01*
X129346902Y-44937960D01*
X129527584Y-44667551D01*
X129527585Y-44667549D01*
X129757549Y-44437585D01*
X130027958Y-44256903D01*
X130328421Y-44132447D01*
X130434744Y-44111298D01*
X130647389Y-44069000D01*
X130972611Y-44069000D01*
X131185256Y-44111298D01*
G37*
G36*
X105785256Y-44111298D02*
G01*
X105891579Y-44132447D01*
X106192042Y-44256903D01*
X106462451Y-44437585D01*
X106692415Y-44667549D01*
X106692416Y-44667551D01*
X106873098Y-44937960D01*
X106997553Y-45238422D01*
X107019697Y-45349744D01*
X107061000Y-45557391D01*
X107061000Y-45882609D01*
X106997553Y-46201579D01*
X106873097Y-46502042D01*
X106692415Y-46772451D01*
X106462451Y-47002415D01*
X106192042Y-47183097D01*
X105891579Y-47307553D01*
X105785256Y-47328702D01*
X105572611Y-47371000D01*
X105247389Y-47371000D01*
X105034744Y-47328702D01*
X104928421Y-47307553D01*
X104627958Y-47183097D01*
X104357549Y-47002415D01*
X104127585Y-46772451D01*
X103946903Y-46502042D01*
X103822447Y-46201579D01*
X103759000Y-45882609D01*
X103759000Y-45557391D01*
X103800304Y-45349744D01*
X103822447Y-45238422D01*
X103946902Y-44937960D01*
X104127584Y-44667551D01*
X104127585Y-44667549D01*
X104357549Y-44437585D01*
X104627958Y-44256903D01*
X104928421Y-44132447D01*
X105034744Y-44111298D01*
X105247389Y-44069000D01*
X105572611Y-44069000D01*
X105785256Y-44111298D01*
G37*
G36*
X100705256Y-44111298D02*
G01*
X100811579Y-44132447D01*
X101112042Y-44256903D01*
X101382451Y-44437585D01*
X101612415Y-44667549D01*
X101612416Y-44667551D01*
X101793098Y-44937960D01*
X101917553Y-45238422D01*
X101939697Y-45349744D01*
X101981000Y-45557391D01*
X101981000Y-45882609D01*
X101917553Y-46201579D01*
X101793097Y-46502042D01*
X101612415Y-46772451D01*
X101382451Y-47002415D01*
X101112042Y-47183097D01*
X100811579Y-47307553D01*
X100705256Y-47328702D01*
X100492611Y-47371000D01*
X100167389Y-47371000D01*
X99954744Y-47328702D01*
X99848421Y-47307553D01*
X99547958Y-47183097D01*
X99277549Y-47002415D01*
X99047585Y-46772451D01*
X98866903Y-46502042D01*
X98742447Y-46201579D01*
X98679000Y-45882609D01*
X98679000Y-45557391D01*
X98720304Y-45349744D01*
X98742447Y-45238422D01*
X98866902Y-44937960D01*
X99047584Y-44667551D01*
X99047585Y-44667549D01*
X99277549Y-44437585D01*
X99547958Y-44256903D01*
X99848421Y-44132447D01*
X99954744Y-44111298D01*
X100167389Y-44069000D01*
X100492611Y-44069000D01*
X100705256Y-44111298D01*
G37*
G36*
X115945256Y-44111298D02*
G01*
X116051579Y-44132447D01*
X116352042Y-44256903D01*
X116622451Y-44437585D01*
X116852415Y-44667549D01*
X116852416Y-44667551D01*
X117033098Y-44937960D01*
X117157553Y-45238422D01*
X117179697Y-45349744D01*
X117221000Y-45557391D01*
X117221000Y-45882609D01*
X117157553Y-46201579D01*
X117033097Y-46502042D01*
X116852415Y-46772451D01*
X116622451Y-47002415D01*
X116352042Y-47183097D01*
X116051579Y-47307553D01*
X115945256Y-47328702D01*
X115732611Y-47371000D01*
X115407389Y-47371000D01*
X115194744Y-47328702D01*
X115088421Y-47307553D01*
X114787958Y-47183097D01*
X114517549Y-47002415D01*
X114287585Y-46772451D01*
X114106903Y-46502042D01*
X113982447Y-46201579D01*
X113919000Y-45882609D01*
X113919000Y-45557391D01*
X113960304Y-45349744D01*
X113982447Y-45238422D01*
X114106902Y-44937960D01*
X114287584Y-44667551D01*
X114287585Y-44667549D01*
X114517549Y-44437585D01*
X114787958Y-44256903D01*
X115088421Y-44132447D01*
X115194744Y-44111298D01*
X115407389Y-44069000D01*
X115732611Y-44069000D01*
X115945256Y-44111298D01*
G37*
G36*
X126105256Y-44111298D02*
G01*
X126211579Y-44132447D01*
X126512042Y-44256903D01*
X126782451Y-44437585D01*
X127012415Y-44667549D01*
X127012416Y-44667551D01*
X127193098Y-44937960D01*
X127317553Y-45238422D01*
X127339697Y-45349744D01*
X127381000Y-45557391D01*
X127381000Y-45882609D01*
X127317553Y-46201579D01*
X127193097Y-46502042D01*
X127012415Y-46772451D01*
X126782451Y-47002415D01*
X126512042Y-47183097D01*
X126211579Y-47307553D01*
X126105256Y-47328702D01*
X125892611Y-47371000D01*
X125567389Y-47371000D01*
X125354744Y-47328702D01*
X125248421Y-47307553D01*
X124947958Y-47183097D01*
X124677549Y-47002415D01*
X124447585Y-46772451D01*
X124266903Y-46502042D01*
X124142447Y-46201579D01*
X124079000Y-45882609D01*
X124079000Y-45557391D01*
X124120304Y-45349744D01*
X124142447Y-45238422D01*
X124266902Y-44937960D01*
X124447584Y-44667551D01*
X124447585Y-44667549D01*
X124677549Y-44437585D01*
X124947958Y-44256903D01*
X125248421Y-44132447D01*
X125354744Y-44111298D01*
X125567389Y-44069000D01*
X125892611Y-44069000D01*
X126105256Y-44111298D01*
G37*
G36*
X121025256Y-44111298D02*
G01*
X121131579Y-44132447D01*
X121432042Y-44256903D01*
X121702451Y-44437585D01*
X121932415Y-44667549D01*
X121932416Y-44667551D01*
X122113098Y-44937960D01*
X122237553Y-45238422D01*
X122259697Y-45349744D01*
X122301000Y-45557391D01*
X122301000Y-45882609D01*
X122237553Y-46201579D01*
X122113097Y-46502042D01*
X121932415Y-46772451D01*
X121702451Y-47002415D01*
X121432042Y-47183097D01*
X121131579Y-47307553D01*
X121025256Y-47328702D01*
X120812611Y-47371000D01*
X120487389Y-47371000D01*
X120274744Y-47328702D01*
X120168421Y-47307553D01*
X119867958Y-47183097D01*
X119597549Y-47002415D01*
X119367585Y-46772451D01*
X119186903Y-46502042D01*
X119062447Y-46201579D01*
X118999000Y-45882609D01*
X118999000Y-45557391D01*
X119040304Y-45349744D01*
X119062447Y-45238422D01*
X119186902Y-44937960D01*
X119367584Y-44667551D01*
X119367585Y-44667549D01*
X119597549Y-44437585D01*
X119867958Y-44256903D01*
X120168421Y-44132447D01*
X120274744Y-44111298D01*
X120487389Y-44069000D01*
X120812611Y-44069000D01*
X121025256Y-44111298D01*
G37*
G36*
X201035256Y-44111298D02*
G01*
X201141579Y-44132447D01*
X201442042Y-44256903D01*
X201712451Y-44437585D01*
X201942415Y-44667549D01*
X201942416Y-44667551D01*
X202123098Y-44937960D01*
X202247553Y-45238422D01*
X202269697Y-45349744D01*
X202311000Y-45557391D01*
X202311000Y-45882609D01*
X202247553Y-46201579D01*
X202123097Y-46502042D01*
X201942415Y-46772451D01*
X201712451Y-47002415D01*
X201442042Y-47183097D01*
X201141579Y-47307553D01*
X201035256Y-47328702D01*
X200822611Y-47371000D01*
X200497389Y-47371000D01*
X200284744Y-47328702D01*
X200178421Y-47307553D01*
X199877958Y-47183097D01*
X199607549Y-47002415D01*
X199377585Y-46772451D01*
X199196903Y-46502042D01*
X199072447Y-46201579D01*
X199009000Y-45882609D01*
X199009000Y-45557391D01*
X199050304Y-45349744D01*
X199072447Y-45238422D01*
X199196902Y-44937960D01*
X199377584Y-44667551D01*
X199377585Y-44667549D01*
X199607549Y-44437585D01*
X199877958Y-44256903D01*
X200178421Y-44132447D01*
X200284744Y-44111298D01*
X200497389Y-44069000D01*
X200822611Y-44069000D01*
X201035256Y-44111298D01*
G37*
G36*
X136265256Y-44111298D02*
G01*
X136371579Y-44132447D01*
X136672042Y-44256903D01*
X136942451Y-44437585D01*
X137172415Y-44667549D01*
X137172416Y-44667551D01*
X137353098Y-44937960D01*
X137477553Y-45238422D01*
X137499697Y-45349744D01*
X137541000Y-45557391D01*
X137541000Y-45882609D01*
X137477553Y-46201579D01*
X137353097Y-46502042D01*
X137172415Y-46772451D01*
X136942451Y-47002415D01*
X136672042Y-47183097D01*
X136371579Y-47307553D01*
X136265256Y-47328702D01*
X136052611Y-47371000D01*
X135727389Y-47371000D01*
X135514744Y-47328702D01*
X135408421Y-47307553D01*
X135107958Y-47183097D01*
X134837549Y-47002415D01*
X134607585Y-46772451D01*
X134426903Y-46502042D01*
X134302447Y-46201579D01*
X134239000Y-45882609D01*
X134239000Y-45557391D01*
X134280304Y-45349744D01*
X134302447Y-45238422D01*
X134426902Y-44937960D01*
X134607584Y-44667551D01*
X134607585Y-44667549D01*
X134837549Y-44437585D01*
X135107958Y-44256903D01*
X135408421Y-44132447D01*
X135514744Y-44111298D01*
X135727389Y-44069000D01*
X136052611Y-44069000D01*
X136265256Y-44111298D01*
G37*
G36*
X211195256Y-44111298D02*
G01*
X211301579Y-44132447D01*
X211602042Y-44256903D01*
X211872451Y-44437585D01*
X212102415Y-44667549D01*
X212102416Y-44667551D01*
X212283098Y-44937960D01*
X212407553Y-45238422D01*
X212429697Y-45349744D01*
X212471000Y-45557391D01*
X212471000Y-45882609D01*
X212407553Y-46201579D01*
X212283097Y-46502042D01*
X212102415Y-46772451D01*
X211872451Y-47002415D01*
X211602042Y-47183097D01*
X211301579Y-47307553D01*
X211195256Y-47328702D01*
X210982611Y-47371000D01*
X210657389Y-47371000D01*
X210444744Y-47328702D01*
X210338421Y-47307553D01*
X210037958Y-47183097D01*
X209767549Y-47002415D01*
X209537585Y-46772451D01*
X209356903Y-46502042D01*
X209232447Y-46201579D01*
X209169000Y-45882609D01*
X209169000Y-45557391D01*
X209210304Y-45349744D01*
X209232447Y-45238422D01*
X209356902Y-44937960D01*
X209537584Y-44667551D01*
X209537585Y-44667549D01*
X209767549Y-44437585D01*
X210037958Y-44256903D01*
X210338421Y-44132447D01*
X210444744Y-44111298D01*
X210657389Y-44069000D01*
X210982611Y-44069000D01*
X211195256Y-44111298D01*
G37*
G36*
X206115256Y-44111298D02*
G01*
X206221579Y-44132447D01*
X206522042Y-44256903D01*
X206792451Y-44437585D01*
X207022415Y-44667549D01*
X207022416Y-44667551D01*
X207203098Y-44937960D01*
X207327553Y-45238422D01*
X207349697Y-45349744D01*
X207391000Y-45557391D01*
X207391000Y-45882609D01*
X207327553Y-46201579D01*
X207203097Y-46502042D01*
X207022415Y-46772451D01*
X206792451Y-47002415D01*
X206522042Y-47183097D01*
X206221579Y-47307553D01*
X206115256Y-47328702D01*
X205902611Y-47371000D01*
X205577389Y-47371000D01*
X205364744Y-47328702D01*
X205258421Y-47307553D01*
X204957958Y-47183097D01*
X204687549Y-47002415D01*
X204457585Y-46772451D01*
X204276903Y-46502042D01*
X204152447Y-46201579D01*
X204089000Y-45882609D01*
X204089000Y-45557391D01*
X204130304Y-45349744D01*
X204152447Y-45238422D01*
X204276902Y-44937960D01*
X204457584Y-44667551D01*
X204457585Y-44667549D01*
X204687549Y-44437585D01*
X204957958Y-44256903D01*
X205258421Y-44132447D01*
X205364744Y-44111298D01*
X205577389Y-44069000D01*
X205902611Y-44069000D01*
X206115256Y-44111298D01*
G37*
G36*
X172986000Y-47256000D02*
G01*
X171184000Y-47256000D01*
X171184000Y-45454000D01*
X172986000Y-45454000D01*
X172986000Y-47256000D01*
G37*
G36*
X150126000Y-47256000D02*
G01*
X148324000Y-47256000D01*
X148324000Y-45454000D01*
X150126000Y-45454000D01*
X150126000Y-47256000D01*
G37*
M02*
